<svg width="437" height="651" viewBox="0 0 437 651" fill="none" xmlns="http://www.w3.org/2000/svg">
<rect x="18.5" y="15.5" width="398" height="171" rx="23.5" fill="url(#paint0_linear_58_5)" fill-opacity="0.3" stroke="#2D90DC"/>
<path d="M47.5103 38.0291H122.453L141.757 54.7098V147.926C141.757 149.487 141.039 150.985 139.761 152.089C138.484 153.193 136.751 153.813 134.944 153.813H47.5103C45.7033 153.813 43.9704 153.193 42.6927 152.089C41.4151 150.985 40.6973 149.487 40.6973 147.926V43.9164C40.6973 42.355 41.4151 40.8575 42.6927 39.7534C43.9704 38.6493 45.7033 38.0291 47.5103 38.0291Z" fill="url(#paint1_linear_58_5)"/>
<g opacity="0.9" filter="url(#filter0_i_58_5)">
<path d="M122.5 37.8616V54.6H141.88L122.5 37.8616Z" fill="white"/>
</g>
<path d="M124.78 63.4615H63.2199C61.9607 63.4615 60.9399 64.3432 60.9399 65.4308V66.4154C60.9399 67.503 61.9607 68.3846 63.2199 68.3846H124.78C126.039 68.3846 127.06 67.503 127.06 66.4154V65.4308C127.06 64.3432 126.039 63.4615 124.78 63.4615Z" fill="white" fill-opacity="0.95"/>
<path d="M124.78 63.4615H63.2199C61.9607 63.4615 60.9399 64.3432 60.9399 65.4308V66.4154C60.9399 67.503 61.9607 68.3846 63.2199 68.3846H124.78C126.039 68.3846 127.06 67.503 127.06 66.4154V65.4308C127.06 64.3432 126.039 63.4615 124.78 63.4615Z" fill="white" fill-opacity="0.95"/>
<path d="M111.1 75.2769H63.2199C61.9607 75.2769 60.9399 76.1586 60.9399 77.2461C60.9399 78.3337 61.9607 79.2154 63.2199 79.2154H111.1C112.359 79.2154 113.38 78.3337 113.38 77.2461C113.38 76.1586 112.359 75.2769 111.1 75.2769Z" fill="white" fill-opacity="0.85"/>
<path d="M120.22 84.1385H63.2199C61.9607 84.1385 60.9399 85.0201 60.9399 86.1077C60.9399 87.1953 61.9607 88.0769 63.2199 88.0769H120.22C121.479 88.0769 122.5 87.1953 122.5 86.1077C122.5 85.0201 121.479 84.1385 120.22 84.1385Z" fill="white" fill-opacity="0.85"/>
<path d="M106.54 93.9846H63.2199C61.9607 93.9846 60.9399 94.8663 60.9399 95.9539C60.9399 97.0414 61.9607 97.9231 63.2199 97.9231H106.54C107.799 97.9231 108.82 97.0414 108.82 95.9539C108.82 94.8663 107.799 93.9846 106.54 93.9846Z" fill="white" fill-opacity="0.85"/>
<path d="M115.66 103.831H63.2199C61.9607 103.831 60.9399 104.712 60.9399 105.8C60.9399 106.888 61.9607 107.769 63.2199 107.769H115.66C116.919 107.769 117.94 106.888 117.94 105.8C117.94 104.712 116.919 103.831 115.66 103.831Z" fill="white" fill-opacity="0.85"/>
<path d="M122.962 122.014H63.682C61.7931 122.014 60.262 123.337 60.262 124.968V134.814C60.262 136.446 61.7931 137.768 63.682 137.768H122.962C124.851 137.768 126.382 136.446 126.382 134.814V124.968C126.382 123.337 124.851 122.014 122.962 122.014Z" fill="black" fill-opacity="0.08"/>
<path d="M74.762 138.041C74.4392 138.041 74.1739 137.929 73.9662 137.705C73.7617 137.481 73.669 137.21 73.6881 136.89C73.7105 136.574 73.8432 136.307 74.0861 136.09C74.3321 135.869 74.615 135.759 74.9346 135.759C75.2414 135.759 75.5003 135.869 75.7112 136.09C75.9222 136.31 76.0149 136.577 75.9893 136.89C75.9733 137.101 75.9046 137.294 75.7831 137.47C75.6649 137.643 75.5147 137.782 75.3325 137.887C75.1503 137.99 74.9602 138.041 74.762 138.041ZM80.202 138.036C79.6395 138.036 79.1553 137.892 78.7494 137.604C78.3467 137.314 78.0591 136.887 77.8865 136.324C77.7171 135.759 77.7012 135.065 77.8386 134.244C77.9792 133.4 78.2317 132.699 78.596 132.139C78.9604 131.577 79.3918 131.157 79.8904 130.878C80.389 130.597 80.9084 130.457 81.4485 130.457C81.8576 130.457 82.1884 130.527 82.4409 130.668C82.6965 130.805 82.8931 130.978 83.0305 131.185C83.1679 131.39 83.2638 131.591 83.3182 131.789H83.3805L83.9989 128.098H86.0364L84.4064 137.916H82.3929L82.5895 136.737H82.5032C82.3753 136.941 82.2059 137.144 81.995 137.346C81.7873 137.544 81.5348 137.708 81.2376 137.839C80.9435 137.97 80.5983 138.036 80.202 138.036ZM81.1033 136.411C81.4293 136.411 81.7233 136.321 81.9854 136.142C82.2475 135.96 82.468 135.706 82.647 135.38C82.826 135.054 82.9506 134.672 83.0209 134.234C83.0944 133.796 83.096 133.416 83.0257 133.093C82.9554 132.771 82.818 132.521 82.6134 132.345C82.4121 132.17 82.1452 132.082 81.8128 132.082C81.4773 132.082 81.18 132.173 80.9211 132.355C80.6655 132.537 80.4529 132.79 80.2835 133.112C80.1173 133.435 79.9991 133.809 79.9288 134.234C79.8585 134.663 79.8537 135.041 79.9144 135.37C79.9751 135.696 80.1046 135.952 80.3027 136.138C80.5009 136.32 80.7677 136.411 81.1033 136.411ZM89.4174 138.06C88.6663 138.06 88.0447 137.9 87.5525 137.581C87.0603 137.258 86.7135 136.81 86.5122 136.238C86.314 135.663 86.2773 134.993 86.4019 134.229C86.5234 133.475 86.7759 132.815 87.1594 132.25C87.5429 131.684 88.0303 131.244 88.6216 130.931C89.2128 130.615 89.8792 130.457 90.6207 130.457C91.3685 130.457 91.9886 130.618 92.4808 130.941C92.9729 131.26 93.3197 131.708 93.5211 132.283C93.7224 132.858 93.7608 133.528 93.6361 134.292C93.5115 135.043 93.2558 135.701 92.8691 136.267C92.4824 136.833 91.995 137.274 91.4069 137.59C90.8188 137.903 90.1557 138.06 89.4174 138.06ZM89.6187 136.478C89.9639 136.478 90.2691 136.38 90.5344 136.185C90.8028 135.987 91.025 135.719 91.2008 135.38C91.3797 135.038 91.5044 134.651 91.5747 134.22C91.645 133.795 91.6498 133.418 91.5891 133.089C91.5283 132.756 91.4005 132.494 91.2055 132.302C91.0138 132.111 90.7501 132.015 90.4145 132.015C90.0694 132.015 89.7625 132.114 89.4941 132.312C89.2256 132.507 89.0035 132.775 88.8277 133.117C88.6519 133.459 88.5289 133.848 88.4586 134.282C88.3914 134.704 88.3867 135.081 88.4442 135.414C88.5017 135.743 88.628 136.003 88.8229 136.195C89.0179 136.384 89.2831 136.478 89.6187 136.478ZM97.6679 138.06C96.9104 138.06 96.2872 137.9 95.7982 137.581C95.3124 137.258 94.9721 136.81 94.7771 136.238C94.5853 135.666 94.5518 135.008 94.6764 134.263C94.7979 133.509 95.052 132.847 95.4387 132.278C95.8254 131.706 96.316 131.26 96.9104 130.941C97.5081 130.618 98.1793 130.457 98.9239 130.457C99.5663 130.457 100.11 130.573 100.554 130.807C100.998 131.04 101.324 131.367 101.532 131.789C101.74 132.211 101.81 132.707 101.743 133.275H99.8204C99.8236 132.911 99.7293 132.616 99.5376 132.389C99.3458 132.162 99.0646 132.048 98.6938 132.048C98.3742 132.048 98.0802 132.135 97.8117 132.307C97.5465 132.476 97.3211 132.724 97.1358 133.05C96.9536 133.376 96.8258 133.771 96.7522 134.234C96.6755 134.704 96.6739 135.104 96.7475 135.433C96.821 135.762 96.9616 136.013 97.1693 136.185C97.3771 136.358 97.6391 136.444 97.9555 136.444C98.1921 136.444 98.411 136.396 98.6123 136.301C98.8169 136.205 98.9959 136.066 99.1493 135.883C99.3027 135.698 99.4209 135.476 99.504 135.217H101.431C101.3 135.783 101.062 136.278 100.717 136.703C100.375 137.128 99.9451 137.461 99.4273 137.7C98.9096 137.94 98.3231 138.06 97.6679 138.06ZM105.178 130.552L106.098 133.127L107.915 130.552H110.01L107.263 134.234L108.84 137.916H106.755L105.724 135.37L103.874 137.916H101.764L104.564 134.234L103.068 130.552H105.178Z" fill="white"/>
<path d="M387.273 47.8267H237.727C232.455 47.8267 228.182 52.4113 228.182 58.0667V151.933C228.182 157.589 232.455 162.173 237.727 162.173H387.273C392.544 162.173 396.818 157.589 396.818 151.933V58.0667C396.818 52.4113 392.544 47.8267 387.273 47.8267Z" fill="#F0FAFA"/>
<path d="M241.394 73.14C240.685 73.14 240.069 73.014 239.546 72.762C239.033 72.51 238.641 72.1507 238.37 71.684L239.588 70.508C239.784 70.8533 240.036 71.124 240.344 71.32C240.652 71.5067 241.011 71.6 241.422 71.6C241.898 71.6 242.29 71.4647 242.598 71.194C242.906 70.9233 243.116 70.4893 243.228 69.892L244.264 64.726H240.764L241.072 63.2H246.35L245.034 69.794C244.875 70.6153 244.633 71.2733 244.306 71.768C243.989 72.2533 243.587 72.6033 243.102 72.818C242.617 73.0327 242.047 73.14 241.394 73.14ZM250.485 73.098C249.757 73.098 249.117 72.9627 248.567 72.692C248.025 72.412 247.605 72.0293 247.307 71.544C247.008 71.0493 246.859 70.4707 246.859 69.808C246.859 68.968 247.05 68.2213 247.433 67.568C247.815 66.9053 248.338 66.3873 249.001 66.014C249.673 65.6313 250.438 65.44 251.297 65.44C252.034 65.44 252.673 65.5753 253.215 65.846C253.765 66.1073 254.19 66.4853 254.489 66.98C254.787 67.4653 254.937 68.044 254.937 68.716C254.937 69.5467 254.745 70.2933 254.363 70.956C253.98 71.6187 253.453 72.1413 252.781 72.524C252.118 72.9067 251.353 73.098 250.485 73.098ZM250.597 71.6C251.101 71.6 251.544 71.4833 251.927 71.25C252.309 71.0073 252.613 70.676 252.837 70.256C253.061 69.836 253.173 69.3507 253.173 68.8C253.173 68.2213 253 67.764 252.655 67.428C252.309 67.092 251.824 66.924 251.199 66.924C250.704 66.924 250.261 67.0453 249.869 67.288C249.486 67.5213 249.183 67.848 248.959 68.268C248.735 68.688 248.623 69.1733 248.623 69.724C248.623 70.312 248.795 70.774 249.141 71.11C249.486 71.4367 249.971 71.6 250.597 71.6ZM255.812 73L257.884 62.612H259.634L258.71 67.26L258.164 69.206L257.884 70.97L257.478 73H255.812ZM260.334 73.098C259.718 73.098 259.186 72.9907 258.738 72.776C258.29 72.552 257.945 72.2253 257.702 71.796C257.46 71.3667 257.338 70.8347 257.338 70.2C257.338 69.5 257.422 68.8607 257.59 68.282C257.768 67.694 258.024 67.19 258.36 66.77C258.706 66.3407 259.116 66.014 259.592 65.79C260.078 65.5567 260.628 65.44 261.244 65.44C261.86 65.44 262.416 65.5707 262.91 65.832C263.405 66.084 263.797 66.4573 264.086 66.952C264.385 67.4373 264.534 68.0253 264.534 68.716C264.534 69.3507 264.427 69.934 264.212 70.466C264.007 70.998 263.713 71.46 263.33 71.852C262.948 72.244 262.5 72.552 261.986 72.776C261.482 72.9907 260.932 73.098 260.334 73.098ZM260.194 71.6C260.698 71.6 261.142 71.4833 261.524 71.25C261.907 71.0073 262.21 70.676 262.434 70.256C262.658 69.836 262.77 69.3507 262.77 68.8C262.77 68.2213 262.598 67.764 262.252 67.428C261.907 67.092 261.422 66.924 260.796 66.924C260.302 66.924 259.858 67.0453 259.466 67.288C259.084 67.5213 258.78 67.848 258.556 68.268C258.332 68.688 258.22 69.1733 258.22 69.724C258.22 70.3027 258.393 70.76 258.738 71.096C259.084 71.432 259.569 71.6 260.194 71.6ZM269.447 73L271.407 63.2H275.369C276.368 63.2 277.222 63.368 277.931 63.704C278.64 64.0307 279.182 64.4973 279.555 65.104C279.938 65.7107 280.129 66.4247 280.129 67.246C280.129 68.114 279.98 68.9027 279.681 69.612C279.392 70.3213 278.976 70.928 278.435 71.432C277.903 71.9267 277.264 72.314 276.517 72.594C275.77 72.8647 274.94 73 274.025 73H269.447ZM271.575 71.46H274.081C274.958 71.46 275.71 71.2827 276.335 70.928C276.97 70.564 277.455 70.074 277.791 69.458C278.127 68.842 278.295 68.142 278.295 67.358C278.295 66.826 278.178 66.364 277.945 65.972C277.712 65.58 277.362 65.2767 276.895 65.062C276.438 64.8473 275.864 64.74 275.173 64.74H272.919L271.575 71.46ZM284.597 73.098C283.851 73.098 283.202 72.9627 282.651 72.692C282.101 72.412 281.671 72.0293 281.363 71.544C281.065 71.0493 280.915 70.4707 280.915 69.808C280.915 68.9587 281.102 68.2073 281.475 67.554C281.849 66.9007 282.357 66.3873 283.001 66.014C283.655 65.6313 284.397 65.44 285.227 65.44C285.927 65.44 286.534 65.5707 287.047 65.832C287.561 66.0933 287.957 66.4713 288.237 66.966C288.527 67.4513 288.671 68.0347 288.671 68.716C288.671 68.8933 288.662 69.0753 288.643 69.262C288.625 69.4487 288.597 69.6213 288.559 69.78H282.217L282.413 68.618H287.733L287.019 69.01C287.094 68.534 287.061 68.1373 286.921 67.82C286.781 67.5027 286.557 67.26 286.249 67.092C285.941 66.924 285.573 66.84 285.143 66.84C284.63 66.84 284.182 66.9613 283.799 67.204C283.426 67.4373 283.137 67.7733 282.931 68.212C282.726 68.6413 282.623 69.1453 282.623 69.724C282.623 70.3307 282.796 70.7973 283.141 71.124C283.496 71.4507 284.042 71.614 284.779 71.614C285.199 71.614 285.601 71.5487 285.983 71.418C286.366 71.278 286.683 71.0867 286.935 70.844L287.663 72.062C287.271 72.4073 286.805 72.6687 286.263 72.846C285.731 73.014 285.176 73.098 284.597 73.098ZM292.061 73.098C291.408 73.098 290.797 73.0187 290.227 72.86C289.658 72.7013 289.219 72.51 288.911 72.286L289.639 70.942C289.947 71.1567 290.33 71.334 290.787 71.474C291.254 71.6047 291.739 71.67 292.243 71.67C292.822 71.67 293.247 71.5907 293.517 71.432C293.797 71.2733 293.937 71.054 293.937 70.774C293.937 70.5687 293.839 70.4147 293.643 70.312C293.447 70.2093 293.195 70.1253 292.887 70.06C292.589 69.9947 292.262 69.9247 291.907 69.85C291.562 69.7753 291.235 69.6727 290.927 69.542C290.629 69.4113 290.381 69.22 290.185 68.968C289.989 68.716 289.891 68.38 289.891 67.96C289.891 67.428 290.041 66.9753 290.339 66.602C290.638 66.2287 291.053 65.944 291.585 65.748C292.127 65.5427 292.747 65.44 293.447 65.44C293.951 65.44 294.446 65.496 294.931 65.608C295.417 65.72 295.818 65.8787 296.135 66.084L295.491 67.428C295.155 67.2133 294.791 67.064 294.399 66.98C294.017 66.896 293.643 66.854 293.279 66.854C292.71 66.854 292.285 66.9427 292.005 67.12C291.735 67.288 291.599 67.5027 291.599 67.764C291.599 67.9693 291.697 68.128 291.893 68.24C292.089 68.352 292.337 68.4453 292.635 68.52C292.943 68.5853 293.27 68.6553 293.615 68.73C293.97 68.7953 294.297 68.8933 294.595 69.024C294.903 69.1547 295.155 69.346 295.351 69.598C295.547 69.8407 295.645 70.1673 295.645 70.578C295.645 71.1193 295.491 71.5813 295.183 71.964C294.885 72.3373 294.465 72.622 293.923 72.818C293.382 73.0047 292.761 73.098 292.061 73.098ZM300.457 73.098C299.719 73.098 299.071 72.9627 298.511 72.692C297.96 72.412 297.535 72.0293 297.236 71.544C296.938 71.0493 296.789 70.4707 296.789 69.808C296.789 68.968 296.98 68.2213 297.363 67.568C297.745 66.9053 298.273 66.3873 298.945 66.014C299.617 65.6313 300.391 65.44 301.269 65.44C302.025 65.44 302.673 65.5893 303.215 65.888C303.765 66.1773 304.19 66.6113 304.489 67.19L302.991 67.96C302.823 67.6053 302.58 67.344 302.263 67.176C301.955 67.008 301.577 66.924 301.129 66.924C300.643 66.924 300.205 67.0453 299.812 67.288C299.421 67.5213 299.113 67.848 298.889 68.268C298.665 68.688 298.553 69.1733 298.553 69.724C298.553 70.3027 298.725 70.76 299.071 71.096C299.416 71.432 299.906 71.6 300.541 71.6C300.951 71.6 301.334 71.516 301.689 71.348C302.043 71.18 302.342 70.9187 302.585 70.564L303.873 71.432C303.527 71.9547 303.051 72.3653 302.445 72.664C301.838 72.9533 301.175 73.098 300.457 73.098ZM304.853 73L306.337 65.524H308.003L307.583 67.652L307.429 67.036C307.775 66.4293 308.213 66.014 308.745 65.79C309.277 65.5567 309.926 65.44 310.691 65.44L310.369 67.106C310.295 67.0873 310.225 67.078 310.159 67.078C310.094 67.0687 310.019 67.064 309.935 67.064C309.254 67.064 308.689 67.246 308.241 67.61C307.793 67.9647 307.495 68.534 307.345 69.318L306.603 73H304.853ZM310.664 73L312.148 65.524H313.898L312.414 73H310.664ZM313.422 64.292C313.104 64.292 312.848 64.1987 312.652 64.012C312.465 63.816 312.372 63.5827 312.372 63.312C312.372 62.9947 312.479 62.7287 312.694 62.514C312.918 62.2993 313.207 62.192 313.562 62.192C313.87 62.192 314.122 62.2853 314.318 62.472C314.514 62.6493 314.612 62.8687 314.612 63.13C314.612 63.4753 314.504 63.7553 314.29 63.97C314.075 64.1847 313.786 64.292 313.422 64.292ZM319.233 73.098C318.607 73.098 318.066 72.986 317.609 72.762C317.151 72.5287 316.806 72.188 316.573 71.74C316.339 71.2827 316.232 70.718 316.251 70.046C316.269 69.1127 316.437 68.3007 316.755 67.61C317.072 66.9193 317.515 66.3873 318.085 66.014C318.663 65.6313 319.349 65.44 320.143 65.44C320.759 65.44 321.314 65.5707 321.809 65.832C322.303 66.084 322.695 66.4573 322.985 66.952C323.283 67.4373 323.433 68.0253 323.433 68.716C323.433 69.3507 323.325 69.934 323.111 70.466C322.905 70.998 322.611 71.46 322.229 71.852C321.846 72.244 321.398 72.552 320.885 72.776C320.381 72.9907 319.83 73.098 319.233 73.098ZM314.165 75.716L316.195 65.524H317.861L317.525 67.232L317.063 69.22L316.811 71.222L315.915 75.716H314.165ZM319.093 71.6C319.597 71.6 320.04 71.4833 320.423 71.25C320.805 71.0073 321.109 70.676 321.333 70.256C321.557 69.836 321.669 69.3507 321.669 68.8C321.669 68.2213 321.496 67.764 321.151 67.428C320.805 67.092 320.32 66.924 319.695 66.924C319.2 66.924 318.757 67.0453 318.365 67.288C317.982 67.5213 317.679 67.848 317.455 68.268C317.231 68.688 317.119 69.1733 317.119 69.724C317.119 70.3027 317.291 70.76 317.637 71.096C317.982 71.432 318.467 71.6 319.093 71.6ZM327.108 73.098C326.623 73.098 326.203 72.9953 325.848 72.79C325.503 72.5753 325.251 72.2767 325.092 71.894C324.943 71.502 324.92 71.04 325.022 70.508L326.352 63.872H328.102L326.772 70.494C326.716 70.8393 326.754 71.1193 326.884 71.334C327.015 71.5487 327.262 71.656 327.626 71.656C327.794 71.656 327.962 71.6327 328.13 71.586C328.308 71.53 328.466 71.4553 328.606 71.362L328.914 72.65C328.653 72.818 328.364 72.9347 328.046 73C327.729 73.0653 327.416 73.098 327.108 73.098ZM324.518 66.98L324.798 65.58H329.768L329.488 66.98H324.518ZM330.242 73L331.726 65.524H333.476L331.992 73H330.242ZM333 64.292C332.683 64.292 332.426 64.1987 332.23 64.012C332.043 63.816 331.95 63.5827 331.95 63.312C331.95 62.9947 332.057 62.7287 332.272 62.514C332.496 62.2993 332.785 62.192 333.14 62.192C333.448 62.192 333.7 62.2853 333.896 62.472C334.092 62.6493 334.19 62.8687 334.19 63.13C334.19 63.4753 334.083 63.7553 333.868 63.97C333.653 64.1847 333.364 64.292 333 64.292ZM337.985 73.098C337.257 73.098 336.617 72.9627 336.067 72.692C335.525 72.412 335.105 72.0293 334.807 71.544C334.508 71.0493 334.359 70.4707 334.359 69.808C334.359 68.968 334.55 68.2213 334.933 67.568C335.315 66.9053 335.838 66.3873 336.501 66.014C337.173 65.6313 337.938 65.44 338.797 65.44C339.534 65.44 340.173 65.5753 340.715 65.846C341.265 66.1073 341.69 66.4853 341.989 66.98C342.287 67.4653 342.437 68.044 342.437 68.716C342.437 69.5467 342.245 70.2933 341.863 70.956C341.48 71.6187 340.953 72.1413 340.281 72.524C339.618 72.9067 338.853 73.098 337.985 73.098ZM338.097 71.6C338.601 71.6 339.044 71.4833 339.427 71.25C339.809 71.0073 340.113 70.676 340.337 70.256C340.561 69.836 340.673 69.3507 340.673 68.8C340.673 68.2213 340.5 67.764 340.155 67.428C339.809 67.092 339.324 66.924 338.699 66.924C338.204 66.924 337.761 67.0453 337.369 67.288C336.986 67.5213 336.683 67.848 336.459 68.268C336.235 68.688 336.123 69.1733 336.123 69.724C336.123 70.312 336.295 70.774 336.641 71.11C336.986 71.4367 337.471 71.6 338.097 71.6ZM348.87 65.44C349.514 65.44 350.06 65.5707 350.508 65.832C350.956 66.0933 351.269 66.4807 351.446 66.994C351.633 67.498 351.652 68.1187 351.502 68.856L350.676 73H348.926L349.738 68.898C349.86 68.2913 349.804 67.82 349.57 67.484C349.337 67.1387 348.912 66.966 348.296 66.966C347.652 66.966 347.12 67.1433 346.7 67.498C346.28 67.8527 345.996 68.394 345.846 69.122L345.062 73H343.312L344.796 65.524H346.462L346.042 67.652L345.762 66.98C346.117 66.448 346.56 66.0607 347.092 65.818C347.634 65.566 348.226 65.44 348.87 65.44Z" fill="#1A0E49"/>
<path d="M376.137 85.3733H242.5C240.743 85.3733 239.318 86.9015 239.318 88.7867V90.4933C239.318 92.3785 240.743 93.9067 242.5 93.9067H376.137C377.894 93.9067 379.318 92.3785 379.318 90.4933V88.7867C379.318 86.9015 377.894 85.3733 376.137 85.3733Z" fill="#277EE0"/>
<path d="M344.318 102.44H242.5C240.743 102.44 239.318 103.968 239.318 105.853V107.56C239.318 109.445 240.743 110.973 242.5 110.973H344.318C346.076 110.973 347.5 109.445 347.5 107.56V105.853C347.5 103.968 346.076 102.44 344.318 102.44Z" fill="#42CACD"/>
<path d="M363.409 119.507H242.5C240.743 119.507 239.318 121.035 239.318 122.92V124.627C239.318 126.512 240.743 128.04 242.5 128.04H363.409C365.167 128.04 366.591 126.512 366.591 124.627V122.92C366.591 121.035 365.167 119.507 363.409 119.507Z" fill="#277EE0"/>
<path d="M331.591 136.573H242.5C240.743 136.573 239.318 138.102 239.318 139.987V141.693C239.318 143.578 240.743 145.107 242.5 145.107H331.591C333.348 145.107 334.773 143.578 334.773 141.693V139.987C334.773 138.102 333.348 136.573 331.591 136.573Z" fill="#42CACD"/>
<path d="M169 105.081V94.5405H184H199V105.081H169Z" fill="#2E92DB"/>
<rect x="178.729" y="84" width="10.5405" height="30" fill="#2D90DC"/>
<g filter="url(#filter1_d_58_5)">
<rect x="4.5" y="0.5" width="428" height="200" rx="23.5" stroke="#2D91DB" stroke-dasharray="5 3" shape-rendering="crispEdges"/>
</g>
<path d="M46.968 174L47.738 170.094L47.948 171.27L45.092 164.2H46.898L49.18 169.856L48.116 169.87L52.694 164.2H54.598L48.942 171.284L49.558 170.094L48.774 174H46.968ZM56.5239 174.098C55.7959 174.098 55.1565 173.963 54.6059 173.692C54.0645 173.412 53.6445 173.029 53.3459 172.544C53.0472 172.049 52.8979 171.471 52.8979 170.808C52.8979 169.968 53.0892 169.221 53.4719 168.568C53.8545 167.905 54.3772 167.387 55.0399 167.014C55.7119 166.631 56.4772 166.44 57.3359 166.44C58.0732 166.44 58.7125 166.575 59.2539 166.846C59.8045 167.107 60.2292 167.485 60.5279 167.98C60.8265 168.465 60.9759 169.044 60.9759 169.716C60.9759 170.547 60.7845 171.293 60.4019 171.956C60.0192 172.619 59.4919 173.141 58.8199 173.524C58.1572 173.907 57.3919 174.098 56.5239 174.098ZM56.6359 172.6C57.1399 172.6 57.5832 172.483 57.9659 172.25C58.3485 172.007 58.6519 171.676 58.8759 171.256C59.0999 170.836 59.2119 170.351 59.2119 169.8C59.2119 169.221 59.0392 168.764 58.6939 168.428C58.3485 168.092 57.8632 167.924 57.2379 167.924C56.7432 167.924 56.2999 168.045 55.9079 168.288C55.5252 168.521 55.2219 168.848 54.9979 169.268C54.7739 169.688 54.6619 170.173 54.6619 170.724C54.6619 171.312 54.8345 171.774 55.1799 172.11C55.5252 172.437 56.0105 172.6 56.6359 172.6ZM65.0573 174.098C64.432 174.098 63.8953 173.967 63.4473 173.706C63.0086 173.435 62.696 173.048 62.5093 172.544C62.3226 172.031 62.304 171.405 62.4533 170.668L63.2793 166.524H65.0293L64.2033 170.626C64.0913 171.233 64.1473 171.709 64.3713 172.054C64.6046 172.39 65.0246 172.558 65.6313 172.558C66.2566 172.558 66.7793 172.381 67.1993 172.026C67.6286 171.671 67.9133 171.13 68.0533 170.402L68.8373 166.524H70.5733L69.0893 174H67.4233L67.8433 171.872L68.1233 172.544C67.7686 173.076 67.3206 173.468 66.7793 173.72C66.2473 173.972 65.6733 174.098 65.0573 174.098ZM71.3806 174L72.8646 166.524H74.5306L74.1106 168.652L73.9566 168.036C74.3019 167.429 74.7406 167.014 75.2726 166.79C75.8046 166.557 76.4533 166.44 77.2186 166.44L76.8966 168.106C76.8219 168.087 76.7519 168.078 76.6866 168.078C76.6213 168.069 76.5466 168.064 76.4626 168.064C75.7813 168.064 75.2166 168.246 74.7686 168.61C74.3206 168.965 74.0219 169.534 73.8726 170.318L73.1306 174H71.3806ZM81.2967 174L83.2567 164.2H87.0647C88.25 164.2 89.1647 164.461 89.8087 164.984C90.462 165.497 90.7887 166.221 90.7887 167.154C90.7887 167.975 90.5973 168.685 90.2147 169.282C89.8413 169.87 89.3047 170.327 88.6047 170.654C87.9047 170.971 87.074 171.13 86.1127 171.13H82.9207L83.8587 170.304L83.1307 174H81.2967ZM87.7367 174L85.7347 170.444H87.6667L89.6687 174H87.7367ZM83.8167 170.514L83.2007 169.632H86.1687C87.0553 169.632 87.7413 169.436 88.2267 169.044C88.712 168.652 88.9547 168.078 88.9547 167.322C88.9547 166.79 88.7727 166.393 88.4087 166.132C88.054 165.871 87.5407 165.74 86.8687 165.74H84.0127L84.9647 164.83L83.8167 170.514ZM95.1209 174.098C94.3742 174.098 93.7256 173.963 93.1749 173.692C92.6242 173.412 92.1949 173.029 91.8869 172.544C91.5882 172.049 91.4389 171.471 91.4389 170.808C91.4389 169.959 91.6256 169.207 91.9989 168.554C92.3722 167.901 92.8809 167.387 93.5249 167.014C94.1782 166.631 94.9202 166.44 95.7509 166.44C96.4509 166.44 97.0576 166.571 97.5709 166.832C98.0842 167.093 98.4809 167.471 98.7609 167.966C99.0502 168.451 99.1949 169.035 99.1949 169.716C99.1949 169.893 99.1856 170.075 99.1669 170.262C99.1482 170.449 99.1202 170.621 99.0829 170.78H92.7409L92.9369 169.618H98.2569L97.5429 170.01C97.6176 169.534 97.5849 169.137 97.4449 168.82C97.3049 168.503 97.0809 168.26 96.7729 168.092C96.4649 167.924 96.0962 167.84 95.6669 167.84C95.1536 167.84 94.7056 167.961 94.3229 168.204C93.9496 168.437 93.6602 168.773 93.4549 169.212C93.2496 169.641 93.1469 170.145 93.1469 170.724C93.1469 171.331 93.3196 171.797 93.6649 172.124C94.0196 172.451 94.5656 172.614 95.3029 172.614C95.7229 172.614 96.1242 172.549 96.5069 172.418C96.8896 172.278 97.2069 172.087 97.4589 171.844L98.1869 173.062C97.7949 173.407 97.3282 173.669 96.7869 173.846C96.2549 174.014 95.6996 174.098 95.1209 174.098ZM102.585 174.098C101.932 174.098 101.32 174.019 100.751 173.86C100.182 173.701 99.7429 173.51 99.4349 173.286L100.163 171.942C100.471 172.157 100.854 172.334 101.311 172.474C101.778 172.605 102.263 172.67 102.767 172.67C103.346 172.67 103.77 172.591 104.041 172.432C104.321 172.273 104.461 172.054 104.461 171.774C104.461 171.569 104.363 171.415 104.167 171.312C103.971 171.209 103.719 171.125 103.411 171.06C103.112 170.995 102.786 170.925 102.431 170.85C102.086 170.775 101.759 170.673 101.451 170.542C101.152 170.411 100.905 170.22 100.709 169.968C100.513 169.716 100.415 169.38 100.415 168.96C100.415 168.428 100.564 167.975 100.863 167.602C101.162 167.229 101.577 166.944 102.109 166.748C102.65 166.543 103.271 166.44 103.971 166.44C104.475 166.44 104.97 166.496 105.455 166.608C105.94 166.72 106.342 166.879 106.659 167.084L106.015 168.428C105.679 168.213 105.315 168.064 104.923 167.98C104.54 167.896 104.167 167.854 103.803 167.854C103.234 167.854 102.809 167.943 102.529 168.12C102.258 168.288 102.123 168.503 102.123 168.764C102.123 168.969 102.221 169.128 102.417 169.24C102.613 169.352 102.86 169.445 103.159 169.52C103.467 169.585 103.794 169.655 104.139 169.73C104.494 169.795 104.82 169.893 105.119 170.024C105.427 170.155 105.679 170.346 105.875 170.598C106.071 170.841 106.169 171.167 106.169 171.578C106.169 172.119 106.015 172.581 105.707 172.964C105.408 173.337 104.988 173.622 104.447 173.818C103.906 174.005 103.285 174.098 102.585 174.098ZM110.448 174.098C109.823 174.098 109.286 173.967 108.838 173.706C108.399 173.435 108.087 173.048 107.9 172.544C107.713 172.031 107.695 171.405 107.844 170.668L108.67 166.524H110.42L109.594 170.626C109.482 171.233 109.538 171.709 109.762 172.054C109.995 172.39 110.415 172.558 111.022 172.558C111.647 172.558 112.17 172.381 112.59 172.026C113.019 171.671 113.304 171.13 113.444 170.402L114.228 166.524H115.964L114.48 174H112.814L113.234 171.872L113.514 172.544C113.159 173.076 112.711 173.468 112.17 173.72C111.638 173.972 111.064 174.098 110.448 174.098ZM127.495 166.44C128.149 166.44 128.695 166.571 129.133 166.832C129.572 167.093 129.88 167.481 130.057 167.994C130.235 168.498 130.249 169.119 130.099 169.856L129.273 174H127.523L128.349 169.898C128.471 169.282 128.419 168.806 128.195 168.47C127.971 168.134 127.565 167.966 126.977 167.966C126.371 167.966 125.871 168.143 125.479 168.498C125.097 168.843 124.831 169.38 124.681 170.108L123.897 174H122.147L122.973 169.898C123.095 169.282 123.043 168.806 122.819 168.47C122.595 168.134 122.189 167.966 121.601 167.966C120.995 167.966 120.495 168.143 120.103 168.498C119.721 168.843 119.455 169.385 119.305 170.122L118.521 174H116.771L118.255 166.524H119.921L119.515 168.582L119.221 167.98C119.567 167.448 119.996 167.061 120.509 166.818C121.032 166.566 121.601 166.44 122.217 166.44C122.703 166.44 123.132 166.524 123.505 166.692C123.879 166.851 124.177 167.098 124.401 167.434C124.635 167.761 124.77 168.167 124.807 168.652L123.967 168.47C124.35 167.798 124.84 167.294 125.437 166.958C126.044 166.613 126.73 166.44 127.495 166.44ZM135.275 174.098C134.529 174.098 133.88 173.963 133.329 173.692C132.779 173.412 132.349 173.029 132.041 172.544C131.743 172.049 131.593 171.471 131.593 170.808C131.593 169.959 131.78 169.207 132.153 168.554C132.527 167.901 133.035 167.387 133.679 167.014C134.333 166.631 135.075 166.44 135.905 166.44C136.605 166.44 137.212 166.571 137.725 166.832C138.239 167.093 138.635 167.471 138.915 167.966C139.205 168.451 139.349 169.035 139.349 169.716C139.349 169.893 139.34 170.075 139.321 170.262C139.303 170.449 139.275 170.621 139.237 170.78H132.895L133.091 169.618H138.411L137.697 170.01C137.772 169.534 137.739 169.137 137.599 168.82C137.459 168.503 137.235 168.26 136.927 168.092C136.619 167.924 136.251 167.84 135.821 167.84C135.308 167.84 134.86 167.961 134.477 168.204C134.104 168.437 133.815 168.773 133.609 169.212C133.404 169.641 133.301 170.145 133.301 170.724C133.301 171.331 133.474 171.797 133.819 172.124C134.174 172.451 134.72 172.614 135.457 172.614C135.877 172.614 136.279 172.549 136.661 172.418C137.044 172.278 137.361 172.087 137.613 171.844L138.341 173.062C137.949 173.407 137.483 173.669 136.941 173.846C136.409 174.014 135.854 174.098 135.275 174.098Z" fill="#1A0E49"/>
<rect x="119.5" y="457.5" width="198" height="171" rx="23.5" fill="url(#paint2_linear_58_5)" fill-opacity="0.3" stroke="#2D90DC"/>
<path d="M149.831 476.029H221.88L240.439 492.71V585.926C240.439 587.487 239.749 588.985 238.52 590.089C237.292 591.193 235.626 591.813 233.889 591.813H149.831C148.094 591.813 146.428 591.193 145.199 590.089C143.971 588.985 143.281 587.487 143.281 585.926V481.916C143.281 480.355 143.971 478.858 145.199 477.753C146.428 476.649 148.094 476.029 149.831 476.029Z" fill="url(#paint3_linear_58_5)"/>
<g opacity="0.9" filter="url(#filter2_i_58_5)">
<path d="M221.925 475.862V492.6H240.557L221.925 475.862Z" fill="white"/>
</g>
<path d="M224.117 501.462H164.934C163.723 501.462 162.742 502.343 162.742 503.431V504.415C162.742 505.503 163.723 506.385 164.934 506.385H224.117C225.328 506.385 226.309 505.503 226.309 504.415V503.431C226.309 502.343 225.328 501.462 224.117 501.462Z" fill="white" fill-opacity="0.95"/>
<path d="M210.965 513.277H164.934C163.723 513.277 162.742 514.159 162.742 515.246C162.742 516.334 163.723 517.215 164.934 517.215H210.965C212.176 517.215 213.157 516.334 213.157 515.246C213.157 514.159 212.176 513.277 210.965 513.277Z" fill="white" fill-opacity="0.85"/>
<path d="M219.733 522.138H164.934C163.723 522.138 162.742 523.02 162.742 524.108C162.742 525.195 163.723 526.077 164.934 526.077H219.733C220.944 526.077 221.925 525.195 221.925 524.108C221.925 523.02 220.944 522.138 219.733 522.138Z" fill="white" fill-opacity="0.85"/>
<path d="M206.581 531.985H164.934C163.723 531.985 162.742 532.866 162.742 533.954C162.742 535.041 163.723 535.923 164.934 535.923H206.581C207.792 535.923 208.773 535.041 208.773 533.954C208.773 532.866 207.792 531.985 206.581 531.985Z" fill="white" fill-opacity="0.85"/>
<path d="M215.349 541.831H164.934C163.723 541.831 162.742 542.712 162.742 543.8C162.742 544.888 163.723 545.769 164.934 545.769H215.349C216.56 545.769 217.541 544.888 217.541 543.8C217.541 542.712 216.56 541.831 215.349 541.831Z" fill="white" fill-opacity="0.85"/>
<path d="M222.369 560.014H165.378C163.562 560.014 162.09 561.337 162.09 562.968V572.814C162.09 574.446 163.562 575.768 165.378 575.768H222.369C224.185 575.768 225.657 574.446 225.657 572.814V562.968C225.657 561.337 224.185 560.014 222.369 560.014Z" fill="black" fill-opacity="0.08"/>
<path d="M175.383 576.041C175.06 576.041 174.794 575.929 174.587 575.705C174.382 575.481 174.29 575.21 174.309 574.89C174.331 574.574 174.464 574.307 174.707 574.09C174.953 573.869 175.236 573.759 175.555 573.759C175.862 573.759 176.121 573.869 176.332 574.09C176.543 574.31 176.635 574.577 176.61 574.89C176.594 575.101 176.525 575.294 176.404 575.47C176.285 575.643 176.135 575.782 175.953 575.887C175.771 575.99 175.581 576.041 175.383 576.041ZM180.823 576.036C180.26 576.036 179.776 575.892 179.37 575.604C178.967 575.314 178.68 574.887 178.507 574.324C178.338 573.759 178.322 573.065 178.459 572.244C178.6 571.4 178.852 570.699 179.217 570.139C179.581 569.577 180.012 569.156 180.511 568.878C181.01 568.597 181.529 568.457 182.069 568.457C182.478 568.457 182.809 568.527 183.061 568.667C183.317 568.805 183.514 568.978 183.651 569.185C183.788 569.39 183.884 569.591 183.939 569.789H184.001L184.619 566.098H186.657L185.027 575.916H183.013L183.21 574.737H183.124C182.996 574.941 182.826 575.144 182.616 575.346C182.408 575.544 182.155 575.708 181.858 575.839C181.564 575.97 181.219 576.036 180.823 576.036ZM181.724 574.411C182.05 574.411 182.344 574.321 182.606 574.142C182.868 573.96 183.089 573.706 183.268 573.38C183.447 573.054 183.571 572.672 183.641 572.234C183.715 571.796 183.717 571.416 183.646 571.093C183.576 570.77 183.439 570.521 183.234 570.345C183.033 570.17 182.766 570.082 182.433 570.082C182.098 570.082 181.801 570.173 181.542 570.355C181.286 570.537 181.073 570.79 180.904 571.112C180.738 571.435 180.62 571.809 180.549 572.234C180.479 572.663 180.474 573.041 180.535 573.37C180.596 573.696 180.725 573.952 180.923 574.137C181.121 574.32 181.388 574.411 181.724 574.411ZM190.038 576.06C189.287 576.06 188.665 575.9 188.173 575.58C187.681 575.258 187.334 574.81 187.133 574.238C186.935 573.663 186.898 572.993 187.022 572.229C187.144 571.475 187.396 570.815 187.78 570.25C188.163 569.684 188.651 569.244 189.242 568.931C189.833 568.615 190.5 568.457 191.241 568.457C191.989 568.457 192.609 568.618 193.101 568.941C193.593 569.26 193.94 569.708 194.142 570.283C194.343 570.858 194.381 571.528 194.257 572.292C194.132 573.043 193.876 573.701 193.49 574.267C193.103 574.833 192.616 575.274 192.027 575.59C191.439 575.903 190.776 576.06 190.038 576.06ZM190.239 574.478C190.584 574.478 190.89 574.38 191.155 574.185C191.423 573.987 191.646 573.719 191.821 573.38C192 573.038 192.125 572.651 192.195 572.22C192.266 571.795 192.27 571.418 192.21 571.088C192.149 570.756 192.021 570.494 191.826 570.302C191.634 570.111 191.371 570.015 191.035 570.015C190.69 570.015 190.383 570.114 190.115 570.312C189.846 570.507 189.624 570.775 189.448 571.117C189.272 571.459 189.149 571.848 189.079 572.282C189.012 572.704 189.007 573.081 189.065 573.414C189.122 573.743 189.248 574.003 189.443 574.195C189.638 574.384 189.904 574.478 190.239 574.478ZM198.288 576.06C197.531 576.06 196.908 575.9 196.419 575.58C195.933 575.258 195.593 574.81 195.398 574.238C195.206 573.666 195.172 573.008 195.297 572.263C195.418 571.509 195.673 570.847 196.059 570.278C196.446 569.706 196.937 569.26 197.531 568.941C198.129 568.618 198.8 568.457 199.544 568.457C200.187 568.457 200.73 568.573 201.174 568.807C201.619 569.04 201.945 569.367 202.152 569.789C202.36 570.211 202.43 570.707 202.363 571.275H200.441C200.444 570.911 200.35 570.615 200.158 570.389C199.966 570.162 199.685 570.048 199.314 570.048C198.995 570.048 198.701 570.134 198.432 570.307C198.167 570.476 197.942 570.724 197.756 571.05C197.574 571.376 197.446 571.771 197.373 572.234C197.296 572.704 197.294 573.104 197.368 573.433C197.442 573.762 197.582 574.013 197.79 574.185C197.998 574.358 198.26 574.444 198.576 574.444C198.813 574.444 199.032 574.396 199.233 574.3C199.437 574.205 199.616 574.066 199.77 573.883C199.923 573.698 200.041 573.476 200.125 573.217H202.052C201.921 573.783 201.683 574.278 201.337 574.703C200.995 575.128 200.566 575.461 200.048 575.7C199.53 575.94 198.944 576.06 198.288 576.06ZM205.798 568.552L206.719 571.127L208.536 568.552H210.631L207.884 572.234L209.461 575.916H207.376L206.345 573.37L204.494 575.916H202.385L205.185 572.234L203.689 568.552H205.798Z" fill="white"/>
<g filter="url(#filter3_d_58_5)">
<rect x="104.5" y="442.5" width="229" height="200" rx="23.5" stroke="#2D91DB" stroke-dasharray="5 3" shape-rendering="crispEdges"/>
</g>
<path d="M160.562 614L162.214 605.74H158.966L159.274 604.2H167.576L167.268 605.74H164.02L162.382 614H160.562ZM169.422 614.098C168.816 614.098 168.26 613.967 167.756 613.706C167.262 613.445 166.865 613.071 166.566 612.586C166.277 612.091 166.132 611.499 166.132 610.808C166.132 610.173 166.235 609.59 166.44 609.058C166.655 608.526 166.954 608.064 167.336 607.672C167.719 607.28 168.162 606.977 168.666 606.762C169.18 606.547 169.74 606.44 170.346 606.44C170.972 606.44 171.508 606.552 171.956 606.776C172.414 607 172.759 607.341 172.992 607.798C173.226 608.246 173.333 608.806 173.314 609.478C173.296 610.402 173.128 611.214 172.81 611.914C172.493 612.605 172.05 613.141 171.48 613.524C170.911 613.907 170.225 614.098 169.422 614.098ZM169.87 612.6C170.374 612.6 170.818 612.483 171.2 612.25C171.583 612.007 171.886 611.676 172.11 611.256C172.334 610.836 172.446 610.351 172.446 609.8C172.446 609.221 172.274 608.764 171.928 608.428C171.583 608.092 171.098 607.924 170.472 607.924C169.978 607.924 169.534 608.045 169.142 608.288C168.76 608.521 168.456 608.848 168.232 609.268C168.008 609.688 167.896 610.173 167.896 610.724C167.896 611.303 168.069 611.76 168.414 612.096C168.76 612.432 169.245 612.6 169.87 612.6ZM171.704 614L172.04 612.292L172.516 610.304L172.754 608.302L173.104 606.524H174.854L173.37 614H171.704ZM175.66 614L177.144 606.524H178.894L177.41 614H175.66ZM178.418 605.292C178.101 605.292 177.844 605.199 177.648 605.012C177.461 604.816 177.368 604.583 177.368 604.312C177.368 603.995 177.475 603.729 177.69 603.514C177.914 603.299 178.203 603.192 178.558 603.192C178.866 603.192 179.118 603.285 179.314 603.472C179.51 603.649 179.608 603.869 179.608 604.13C179.608 604.475 179.501 604.755 179.286 604.97C179.071 605.185 178.782 605.292 178.418 605.292ZM179.707 614L181.779 603.612H183.529L181.457 614H179.707ZM187.45 614.098C186.722 614.098 186.082 613.963 185.532 613.692C184.99 613.412 184.57 613.029 184.272 612.544C183.973 612.049 183.824 611.471 183.824 610.808C183.824 609.968 184.015 609.221 184.398 608.568C184.78 607.905 185.303 607.387 185.966 607.014C186.638 606.631 187.403 606.44 188.262 606.44C188.999 606.44 189.638 606.575 190.18 606.846C190.73 607.107 191.155 607.485 191.454 607.98C191.752 608.465 191.902 609.044 191.902 609.716C191.902 610.547 191.71 611.293 191.328 611.956C190.945 612.619 190.418 613.141 189.746 613.524C189.083 613.907 188.318 614.098 187.45 614.098ZM187.562 612.6C188.066 612.6 188.509 612.483 188.892 612.25C189.274 612.007 189.578 611.676 189.802 611.256C190.026 610.836 190.138 610.351 190.138 609.8C190.138 609.221 189.965 608.764 189.62 608.428C189.274 608.092 188.789 607.924 188.164 607.924C187.669 607.924 187.226 608.045 186.834 608.288C186.451 608.521 186.148 608.848 185.924 609.268C185.7 609.688 185.588 610.173 185.588 610.724C185.588 611.312 185.76 611.774 186.106 612.11C186.451 612.437 186.936 612.6 187.562 612.6ZM192.777 614L194.261 606.524H195.927L195.507 608.652L195.353 608.036C195.698 607.429 196.137 607.014 196.669 606.79C197.201 606.557 197.85 606.44 198.615 606.44L198.293 608.106C198.218 608.087 198.148 608.078 198.083 608.078C198.018 608.069 197.943 608.064 197.859 608.064C197.178 608.064 196.613 608.246 196.165 608.61C195.717 608.965 195.418 609.534 195.269 610.318L194.527 614H192.777ZM202.271 614.098C201.525 614.098 200.876 613.963 200.325 613.692C199.775 613.412 199.345 613.029 199.037 612.544C198.739 612.049 198.589 611.471 198.589 610.808C198.589 609.959 198.776 609.207 199.149 608.554C199.523 607.901 200.031 607.387 200.675 607.014C201.329 606.631 202.071 606.44 202.901 606.44C203.601 606.44 204.208 606.571 204.721 606.832C205.235 607.093 205.631 607.471 205.911 607.966C206.201 608.451 206.345 609.035 206.345 609.716C206.345 609.893 206.336 610.075 206.317 610.262C206.299 610.449 206.271 610.621 206.233 610.78H199.891L200.087 609.618H205.407L204.693 610.01C204.768 609.534 204.735 609.137 204.595 608.82C204.455 608.503 204.231 608.26 203.923 608.092C203.615 607.924 203.247 607.84 202.817 607.84C202.304 607.84 201.856 607.961 201.473 608.204C201.1 608.437 200.811 608.773 200.605 609.212C200.4 609.641 200.297 610.145 200.297 610.724C200.297 611.331 200.47 611.797 200.815 612.124C201.17 612.451 201.716 612.614 202.453 612.614C202.873 612.614 203.275 612.549 203.657 612.418C204.04 612.278 204.357 612.087 204.609 611.844L205.337 613.062C204.945 613.407 204.479 613.669 203.937 613.846C203.405 614.014 202.85 614.098 202.271 614.098ZM210.561 614.098C209.955 614.098 209.399 613.967 208.895 613.706C208.391 613.445 207.995 613.071 207.705 612.586C207.416 612.091 207.271 611.499 207.271 610.808C207.271 610.173 207.374 609.59 207.579 609.058C207.794 608.526 208.093 608.064 208.475 607.672C208.858 607.28 209.301 606.977 209.805 606.762C210.319 606.547 210.874 606.44 211.471 606.44C212.087 606.44 212.619 606.547 213.067 606.762C213.515 606.977 213.861 607.299 214.103 607.728C214.346 608.157 214.467 608.689 214.467 609.324C214.467 610.024 214.379 610.668 214.201 611.256C214.024 611.835 213.767 612.339 213.431 612.768C213.095 613.188 212.685 613.515 212.199 613.748C211.723 613.981 211.177 614.098 210.561 614.098ZM211.009 612.6C211.504 612.6 211.943 612.483 212.325 612.25C212.717 612.007 213.021 611.676 213.235 611.256C213.459 610.836 213.571 610.351 213.571 609.8C213.571 609.221 213.399 608.764 213.053 608.428C212.717 608.092 212.232 607.924 211.597 607.924C211.112 607.924 210.673 608.045 210.281 608.288C209.889 608.521 209.581 608.848 209.357 609.268C209.143 609.688 209.035 610.173 209.035 610.724C209.035 611.303 209.203 611.76 209.539 612.096C209.885 612.432 210.375 612.6 211.009 612.6ZM212.829 614L213.179 612.292L213.641 610.304L213.879 608.302L214.817 603.612H216.567L214.495 614H212.829ZM220.836 614L222.796 604.2H226.604C227.789 604.2 228.704 604.461 229.348 604.984C230.001 605.497 230.328 606.221 230.328 607.154C230.328 607.975 230.136 608.685 229.754 609.282C229.38 609.87 228.844 610.327 228.144 610.654C227.444 610.971 226.613 611.13 225.652 611.13H222.46L223.398 610.304L222.67 614H220.836ZM227.276 614L225.274 610.444H227.206L229.208 614H227.276ZM223.356 610.514L222.74 609.632H225.708C226.594 609.632 227.28 609.436 227.766 609.044C228.251 608.652 228.494 608.078 228.494 607.322C228.494 606.79 228.312 606.393 227.948 606.132C227.593 605.871 227.08 605.74 226.408 605.74H223.552L224.504 604.83L223.356 610.514ZM234.66 614.098C233.913 614.098 233.265 613.963 232.714 613.692C232.163 613.412 231.734 613.029 231.426 612.544C231.127 612.049 230.978 611.471 230.978 610.808C230.978 609.959 231.165 609.207 231.538 608.554C231.911 607.901 232.42 607.387 233.064 607.014C233.717 606.631 234.459 606.44 235.29 606.44C235.99 606.44 236.597 606.571 237.11 606.832C237.623 607.093 238.02 607.471 238.3 607.966C238.589 608.451 238.734 609.035 238.734 609.716C238.734 609.893 238.725 610.075 238.706 610.262C238.687 610.449 238.659 610.621 238.622 610.78H232.28L232.476 609.618H237.796L237.082 610.01C237.157 609.534 237.124 609.137 236.984 608.82C236.844 608.503 236.62 608.26 236.312 608.092C236.004 607.924 235.635 607.84 235.206 607.84C234.693 607.84 234.245 607.961 233.862 608.204C233.489 608.437 233.199 608.773 232.994 609.212C232.789 609.641 232.686 610.145 232.686 610.724C232.686 611.331 232.859 611.797 233.204 612.124C233.559 612.451 234.105 612.614 234.842 612.614C235.262 612.614 235.663 612.549 236.046 612.418C236.429 612.278 236.746 612.087 236.998 611.844L237.726 613.062C237.334 613.407 236.867 613.669 236.326 613.846C235.794 614.014 235.239 614.098 234.66 614.098ZM242.124 614.098C241.471 614.098 240.859 614.019 240.29 613.86C239.721 613.701 239.282 613.51 238.974 613.286L239.702 611.942C240.01 612.157 240.393 612.334 240.85 612.474C241.317 612.605 241.802 612.67 242.306 612.67C242.885 612.67 243.309 612.591 243.58 612.432C243.86 612.273 244 612.054 244 611.774C244 611.569 243.902 611.415 243.706 611.312C243.51 611.209 243.258 611.125 242.95 611.06C242.651 610.995 242.325 610.925 241.97 610.85C241.625 610.775 241.298 610.673 240.99 610.542C240.691 610.411 240.444 610.22 240.248 609.968C240.052 609.716 239.954 609.38 239.954 608.96C239.954 608.428 240.103 607.975 240.402 607.602C240.701 607.229 241.116 606.944 241.648 606.748C242.189 606.543 242.81 606.44 243.51 606.44C244.014 606.44 244.509 606.496 244.994 606.608C245.479 606.72 245.881 606.879 246.198 607.084L245.554 608.428C245.218 608.213 244.854 608.064 244.462 607.98C244.079 607.896 243.706 607.854 243.342 607.854C242.773 607.854 242.348 607.943 242.068 608.12C241.797 608.288 241.662 608.503 241.662 608.764C241.662 608.969 241.76 609.128 241.956 609.24C242.152 609.352 242.399 609.445 242.698 609.52C243.006 609.585 243.333 609.655 243.678 609.73C244.033 609.795 244.359 609.893 244.658 610.024C244.966 610.155 245.218 610.346 245.414 610.598C245.61 610.841 245.708 611.167 245.708 611.578C245.708 612.119 245.554 612.581 245.246 612.964C244.947 613.337 244.527 613.622 243.986 613.818C243.445 614.005 242.824 614.098 242.124 614.098ZM249.987 614.098C249.362 614.098 248.825 613.967 248.377 613.706C247.938 613.435 247.626 613.048 247.439 612.544C247.252 612.031 247.234 611.405 247.383 610.668L248.209 606.524H249.959L249.133 610.626C249.021 611.233 249.077 611.709 249.301 612.054C249.534 612.39 249.954 612.558 250.561 612.558C251.186 612.558 251.709 612.381 252.129 612.026C252.558 611.671 252.843 611.13 252.983 610.402L253.767 606.524H255.503L254.019 614H252.353L252.773 611.872L253.053 612.544C252.698 613.076 252.25 613.468 251.709 613.72C251.177 613.972 250.603 614.098 249.987 614.098ZM267.034 606.44C267.688 606.44 268.234 606.571 268.672 606.832C269.111 607.093 269.419 607.481 269.596 607.994C269.774 608.498 269.788 609.119 269.638 609.856L268.812 614H267.062L267.888 609.898C268.01 609.282 267.958 608.806 267.734 608.47C267.51 608.134 267.104 607.966 266.516 607.966C265.91 607.966 265.41 608.143 265.018 608.498C264.636 608.843 264.37 609.38 264.22 610.108L263.436 614H261.686L262.512 609.898C262.634 609.282 262.582 608.806 262.358 608.47C262.134 608.134 261.728 607.966 261.14 607.966C260.534 607.966 260.034 608.143 259.642 608.498C259.26 608.843 258.994 609.385 258.844 610.122L258.06 614H256.31L257.794 606.524H259.46L259.054 608.582L258.76 607.98C259.106 607.448 259.535 607.061 260.048 606.818C260.571 606.566 261.14 606.44 261.756 606.44C262.242 606.44 262.671 606.524 263.044 606.692C263.418 606.851 263.716 607.098 263.94 607.434C264.174 607.761 264.309 608.167 264.346 608.652L263.506 608.47C263.889 607.798 264.379 607.294 264.976 606.958C265.583 606.613 266.269 606.44 267.034 606.44ZM274.814 614.098C274.068 614.098 273.419 613.963 272.868 613.692C272.318 613.412 271.888 613.029 271.58 612.544C271.282 612.049 271.132 611.471 271.132 610.808C271.132 609.959 271.319 609.207 271.692 608.554C272.066 607.901 272.574 607.387 273.218 607.014C273.872 606.631 274.614 606.44 275.444 606.44C276.144 606.44 276.751 606.571 277.264 606.832C277.778 607.093 278.174 607.471 278.454 607.966C278.744 608.451 278.888 609.035 278.888 609.716C278.888 609.893 278.879 610.075 278.86 610.262C278.842 610.449 278.814 610.621 278.776 610.78H272.434L272.63 609.618H277.95L277.236 610.01C277.311 609.534 277.278 609.137 277.138 608.82C276.998 608.503 276.774 608.26 276.466 608.092C276.158 607.924 275.79 607.84 275.36 607.84C274.847 607.84 274.399 607.961 274.016 608.204C273.643 608.437 273.354 608.773 273.148 609.212C272.943 609.641 272.84 610.145 272.84 610.724C272.84 611.331 273.013 611.797 273.358 612.124C273.713 612.451 274.259 612.614 274.996 612.614C275.416 612.614 275.818 612.549 276.2 612.418C276.583 612.278 276.9 612.087 277.152 611.844L277.88 613.062C277.488 613.407 277.022 613.669 276.48 613.846C275.948 614.014 275.393 614.098 274.814 614.098Z" fill="#1A0E49"/>
<path d="M277.893 570.779C281.61 570.779 284.623 568.052 284.623 564.688C284.623 561.324 281.61 558.597 277.893 558.597C274.176 558.597 271.163 561.324 271.163 564.688C271.163 568.052 274.176 570.779 277.893 570.779Z" fill="#277EE0"/>
<path d="M293.275 518.351C298.054 518.351 301.928 514.845 301.928 510.52C301.928 506.194 298.054 502.688 293.275 502.688C288.496 502.688 284.623 506.194 284.623 510.52C284.623 514.845 288.496 518.351 293.275 518.351Z" fill="#277EE0"/>
<path d="M242.63 555.117C246.347 555.117 249.36 552.39 249.36 549.026C249.36 545.662 246.347 542.935 242.63 542.935C238.913 542.935 235.9 545.662 235.9 549.026C235.9 552.39 238.913 555.117 242.63 555.117Z" fill="#42CACD"/>
<path d="M256.09 495.078C261.399 495.078 265.703 491.182 265.703 486.377C265.703 481.571 261.399 477.675 256.09 477.675C250.78 477.675 246.476 481.571 246.476 486.377C246.476 491.182 250.78 495.078 256.09 495.078Z" fill="#42CACD"/>
<path d="M229.221 335.142L227.893 343.142H226.924L228.08 336.158H228.033L225.861 337.455L226.033 336.47L228.252 335.142H229.221ZM230.518 343.205C230.32 343.205 230.154 343.137 230.021 343.002C229.889 342.864 229.82 342.697 229.814 342.502C229.812 342.306 229.881 342.144 230.021 342.013C230.162 341.88 230.327 341.814 230.518 341.814C230.71 341.814 230.877 341.882 231.018 342.017C231.158 342.153 231.226 342.314 231.221 342.502C231.218 342.632 231.184 342.75 231.119 342.857C231.057 342.964 230.972 343.048 230.865 343.111C230.761 343.173 230.645 343.205 230.518 343.205ZM235.073 343.252C234.615 343.252 234.216 343.16 233.878 342.978C233.539 342.796 233.285 342.546 233.116 342.228C232.947 341.91 232.886 341.548 232.933 341.142H233.87C233.847 341.502 233.963 341.8 234.218 342.037C234.476 342.274 234.808 342.392 235.214 342.392C235.542 342.392 235.847 342.315 236.128 342.162C236.412 342.008 236.649 341.797 236.839 341.529C237.032 341.261 237.157 340.955 237.214 340.611C237.271 340.262 237.246 339.95 237.14 339.673C237.033 339.397 236.86 339.18 236.62 339.021C236.381 338.862 236.089 338.783 235.745 338.783C235.503 338.783 235.246 338.822 234.976 338.9C234.707 338.976 234.479 339.072 234.292 339.189L233.401 339.08L234.542 335.142H238.698L238.558 336.002H235.214L234.542 338.361H234.589C234.776 338.228 234.999 338.12 235.257 338.037C235.517 337.951 235.784 337.908 236.058 337.908C236.547 337.908 236.964 338.025 237.308 338.259C237.654 338.491 237.903 338.81 238.054 339.216C238.207 339.62 238.24 340.08 238.151 340.595C238.068 341.106 237.879 341.561 237.585 341.963C237.293 342.361 236.929 342.676 236.491 342.908C236.056 343.137 235.584 343.252 235.073 343.252ZM247.422 338.486L246.547 338.72C246.516 338.58 246.461 338.444 246.383 338.314C246.307 338.181 246.19 338.073 246.031 337.99C245.875 337.904 245.661 337.861 245.391 337.861C245.023 337.861 244.704 337.946 244.434 338.115C244.163 338.282 244.008 338.494 243.969 338.752C243.93 338.978 243.982 339.159 244.125 339.295C244.268 339.43 244.508 339.541 244.844 339.627L245.703 339.845C246.219 339.978 246.586 340.177 246.805 340.443C247.026 340.706 247.102 341.048 247.031 341.47C246.974 341.814 246.824 342.121 246.582 342.392C246.34 342.663 246.03 342.877 245.652 343.033C245.275 343.189 244.854 343.267 244.391 343.267C243.773 343.267 243.286 343.134 242.93 342.869C242.573 342.601 242.383 342.213 242.359 341.705L243.281 341.486C243.305 341.806 243.419 342.048 243.625 342.213C243.833 342.374 244.125 342.455 244.5 342.455C244.93 342.455 245.288 342.364 245.574 342.181C245.861 341.996 246.023 341.775 246.063 341.517C246.102 341.306 246.06 341.13 245.938 340.99C245.818 340.849 245.609 340.744 245.312 340.673L244.359 340.439C243.828 340.306 243.456 340.103 243.242 339.83C243.031 339.556 242.961 339.213 243.031 338.798C243.089 338.46 243.234 338.16 243.469 337.9C243.706 337.64 244.003 337.435 244.359 337.287C244.719 337.138 245.109 337.064 245.531 337.064C246.125 337.064 246.569 337.194 246.863 337.455C247.158 337.713 247.344 338.056 247.422 338.486ZM250.638 343.267C250.062 343.267 249.587 343.14 249.212 342.884C248.837 342.627 248.575 342.267 248.427 341.806C248.278 341.343 248.255 340.804 248.356 340.189C248.458 339.575 248.66 339.033 248.962 338.564C249.264 338.093 249.64 337.726 250.091 337.463C250.541 337.197 251.036 337.064 251.575 337.064C251.888 337.064 252.188 337.116 252.478 337.22C252.767 337.325 253.017 337.494 253.228 337.728C253.438 337.96 253.586 338.267 253.669 338.65C253.752 339.033 253.747 339.504 253.653 340.064L253.591 340.455H248.966L249.091 339.658H252.778C252.838 339.319 252.823 339.017 252.731 338.752C252.643 338.486 252.488 338.276 252.267 338.123C252.048 337.969 251.771 337.892 251.435 337.892C251.088 337.892 250.765 337.986 250.466 338.173C250.166 338.358 249.916 338.593 249.716 338.877C249.515 339.158 249.39 339.444 249.341 339.736L249.231 340.423C249.153 340.921 249.165 341.317 249.267 341.611C249.371 341.905 249.552 342.117 249.81 342.248C250.067 342.375 250.39 342.439 250.778 342.439C251.026 342.439 251.254 342.405 251.462 342.338C251.67 342.267 251.856 342.163 252.021 342.025C252.185 341.884 252.323 341.71 252.435 341.502L253.278 341.752C253.135 342.054 252.933 342.319 252.673 342.548C252.415 342.775 252.113 342.952 251.767 343.08C251.423 343.205 251.047 343.267 250.638 343.267ZM256.983 343.267C256.418 343.267 255.955 343.134 255.593 342.869C255.233 342.603 254.983 342.237 254.843 341.771C254.702 341.305 254.681 340.772 254.78 340.173C254.879 339.564 255.08 339.026 255.382 338.56C255.684 338.091 256.06 337.726 256.511 337.463C256.961 337.197 257.457 337.064 257.999 337.064C258.421 337.064 258.788 337.142 259.101 337.298C259.413 337.455 259.654 337.673 259.823 337.955C259.993 338.236 260.072 338.564 260.062 338.939H259.14C259.114 338.666 258.996 338.423 258.788 338.213C258.582 337.999 258.278 337.892 257.874 337.892C257.515 337.892 257.184 337.986 256.882 338.173C256.58 338.358 256.326 338.62 256.12 338.959C255.914 339.295 255.775 339.689 255.702 340.142C255.624 340.606 255.631 341.009 255.722 341.353C255.813 341.697 255.978 341.964 256.218 342.154C256.457 342.344 256.759 342.439 257.124 342.439C257.364 342.439 257.588 342.397 257.796 342.314C258.004 342.231 258.189 342.111 258.351 341.955C258.512 341.798 258.64 341.611 258.733 341.392H259.655C259.541 341.746 259.357 342.065 259.104 342.349C258.852 342.63 258.546 342.854 258.187 343.021C257.827 343.185 257.426 343.267 256.983 343.267ZM263.8 343.142L264.8 337.142H265.69L265.534 338.048H265.597C265.753 337.752 265.991 337.511 266.312 337.326C266.632 337.141 266.972 337.048 267.331 337.048C267.401 337.048 267.486 337.05 267.585 337.052C267.684 337.052 267.761 337.056 267.815 337.064L267.659 338.002C267.628 337.994 267.558 337.982 267.448 337.966C267.339 337.948 267.222 337.939 267.097 337.939C266.805 337.939 266.535 338 266.288 338.123C266.041 338.242 265.834 338.409 265.667 338.623C265.5 338.834 265.394 339.075 265.347 339.345L264.722 343.142H263.8ZM270.231 343.267C269.656 343.267 269.181 343.14 268.806 342.884C268.431 342.627 268.169 342.267 268.021 341.806C267.872 341.343 267.849 340.804 267.95 340.189C268.052 339.575 268.254 339.033 268.556 338.564C268.858 338.093 269.234 337.726 269.685 337.463C270.135 337.197 270.63 337.064 271.169 337.064C271.481 337.064 271.782 337.116 272.071 337.22C272.36 337.325 272.61 337.494 272.821 337.728C273.032 337.96 273.179 338.267 273.263 338.65C273.346 339.033 273.341 339.504 273.247 340.064L273.185 340.455H268.56L268.685 339.658H272.372C272.432 339.319 272.416 339.017 272.325 338.752C272.237 338.486 272.082 338.276 271.86 338.123C271.642 337.969 271.364 337.892 271.028 337.892C270.682 337.892 270.359 337.986 270.06 338.173C269.76 338.358 269.51 338.593 269.31 338.877C269.109 339.158 268.984 339.444 268.935 339.736L268.825 340.423C268.747 340.921 268.759 341.317 268.86 341.611C268.965 341.905 269.146 342.117 269.403 342.248C269.661 342.375 269.984 342.439 270.372 342.439C270.619 342.439 270.847 342.405 271.056 342.338C271.264 342.267 271.45 342.163 271.614 342.025C271.778 341.884 271.916 341.71 272.028 341.502L272.872 341.752C272.729 342.054 272.527 342.319 272.267 342.548C272.009 342.775 271.707 342.952 271.36 343.08C271.017 343.205 270.64 343.267 270.231 343.267ZM274.155 343.142L275.155 337.142H276.046L275.89 338.08H275.968C276.147 337.759 276.391 337.511 276.698 337.334C277.008 337.154 277.358 337.064 277.749 337.064C278.14 337.064 278.453 337.154 278.69 337.334C278.927 337.511 279.093 337.759 279.187 338.08H279.249C279.452 337.767 279.723 337.52 280.062 337.338C280.403 337.155 280.788 337.064 281.218 337.064C281.749 337.064 282.158 337.232 282.444 337.568C282.733 337.904 282.819 338.423 282.702 339.127L282.03 343.142H281.108L281.78 339.127C281.851 338.681 281.78 338.365 281.569 338.177C281.361 337.987 281.093 337.892 280.765 337.892C280.343 337.892 279.995 338.019 279.722 338.271C279.448 338.524 279.28 338.845 279.218 339.236L278.562 343.142H277.624L278.312 339.033C278.366 338.689 278.301 338.413 278.116 338.205C277.931 337.996 277.663 337.892 277.312 337.892C277.072 337.892 276.838 337.957 276.608 338.088C276.379 338.215 276.183 338.392 276.019 338.619C275.854 338.843 275.749 339.101 275.702 339.392L275.077 343.142H274.155ZM285.466 343.283C285.086 343.283 284.752 343.211 284.466 343.068C284.179 342.922 283.967 342.713 283.829 342.439C283.691 342.163 283.653 341.83 283.716 341.439C283.776 341.095 283.892 340.817 284.063 340.603C284.235 340.387 284.444 340.218 284.688 340.095C284.936 339.97 285.201 339.878 285.485 339.818C285.772 339.755 286.057 339.707 286.341 339.673C286.711 339.627 287.011 339.59 287.243 339.564C287.475 339.538 287.649 339.495 287.767 339.435C287.884 339.375 287.955 339.272 287.981 339.127V339.095C288.044 338.713 287.993 338.414 287.829 338.201C287.665 337.985 287.372 337.877 286.95 337.877C286.513 337.877 286.147 337.973 285.853 338.166C285.558 338.358 285.341 338.564 285.2 338.783L284.388 338.47C284.601 338.106 284.856 337.822 285.153 337.619C285.45 337.413 285.761 337.27 286.087 337.189C286.412 337.106 286.726 337.064 287.028 337.064C287.221 337.064 287.438 337.088 287.681 337.134C287.923 337.179 288.149 337.271 288.36 337.412C288.574 337.552 288.734 337.765 288.841 338.048C288.95 338.332 288.966 338.713 288.888 339.189L288.231 343.142H287.31L287.45 342.33H287.403C287.32 342.46 287.192 342.599 287.021 342.748C286.851 342.896 286.636 343.022 286.376 343.127C286.118 343.231 285.815 343.283 285.466 343.283ZM285.731 342.455C286.096 342.455 286.415 342.383 286.688 342.24C286.965 342.097 287.186 341.912 287.353 341.685C287.522 341.459 287.627 341.22 287.669 340.97L287.81 340.127C287.763 340.173 287.67 340.216 287.532 340.255C287.394 340.292 287.238 340.325 287.063 340.353C286.892 340.379 286.724 340.403 286.56 340.423C286.398 340.442 286.268 340.457 286.169 340.47C285.924 340.502 285.691 340.552 285.47 340.623C285.251 340.69 285.066 340.793 284.915 340.931C284.767 341.067 284.674 341.252 284.638 341.486C284.583 341.806 284.66 342.048 284.868 342.213C285.076 342.374 285.364 342.455 285.731 342.455ZM289.914 343.142L290.914 337.142H291.836L290.836 343.142H289.914ZM291.656 336.127C291.477 336.127 291.322 336.065 291.191 335.943C291.064 335.821 291 335.673 291 335.502C291 335.33 291.064 335.183 291.191 335.06C291.322 334.938 291.477 334.877 291.656 334.877C291.836 334.877 291.99 334.938 292.117 335.06C292.247 335.183 292.313 335.33 292.313 335.502C292.313 335.673 292.247 335.821 292.117 335.943C291.99 336.065 291.836 336.127 291.656 336.127ZM294.04 339.533L293.446 343.142H292.524L293.524 337.142H294.415L294.259 338.08H294.337C294.524 337.775 294.778 337.53 295.099 337.345C295.419 337.158 295.806 337.064 296.259 337.064C296.66 337.064 296.998 337.147 297.274 337.314C297.553 337.478 297.75 337.728 297.864 338.064C297.981 338.397 297.998 338.819 297.915 339.33L297.274 343.142H296.353L296.978 339.392C297.056 338.923 296.994 338.556 296.794 338.291C296.596 338.025 296.282 337.892 295.853 337.892C295.556 337.892 295.281 337.956 295.028 338.084C294.778 338.211 294.566 338.397 294.392 338.642C294.22 338.887 294.103 339.184 294.04 339.533ZM298.959 343.142L299.959 337.142H300.881L299.881 343.142H298.959ZM300.701 336.127C300.521 336.127 300.367 336.065 300.236 335.943C300.109 335.821 300.045 335.673 300.045 335.502C300.045 335.33 300.109 335.183 300.236 335.06C300.367 334.938 300.521 334.877 300.701 334.877C300.881 334.877 301.035 334.938 301.162 335.06C301.292 335.183 301.357 335.33 301.357 335.502C301.357 335.673 301.292 335.821 301.162 335.943C301.035 336.065 300.881 336.127 300.701 336.127ZM303.085 339.533L302.491 343.142H301.569L302.569 337.142H303.46L303.304 338.08H303.382C303.569 337.775 303.823 337.53 304.144 337.345C304.464 337.158 304.851 337.064 305.304 337.064C305.705 337.064 306.043 337.147 306.319 337.314C306.598 337.478 306.795 337.728 306.909 338.064C307.026 338.397 307.043 338.819 306.96 339.33L306.319 343.142H305.397L306.022 339.392C306.101 338.923 306.039 338.556 305.839 338.291C305.641 338.025 305.327 337.892 304.897 337.892C304.601 337.892 304.326 337.956 304.073 338.084C303.823 338.211 303.611 338.397 303.437 338.642C303.265 338.887 303.147 339.184 303.085 339.533ZM310.051 345.517C309.603 345.517 309.228 345.46 308.926 345.345C308.624 345.233 308.382 345.085 308.199 344.9C308.017 344.718 307.879 344.522 307.785 344.314L308.613 343.798C308.676 343.908 308.757 344.033 308.855 344.173C308.954 344.317 309.104 344.44 309.305 344.545C309.508 344.651 309.793 344.705 310.16 344.705C310.642 344.705 311.064 344.588 311.426 344.353C311.788 344.119 312.012 343.752 312.098 343.252L312.285 342.033H312.207C312.124 342.142 312.008 342.278 311.859 342.439C311.711 342.598 311.512 342.74 311.262 342.865C311.012 342.987 310.691 343.048 310.301 343.048C309.814 343.048 309.397 342.934 309.051 342.705C308.704 342.476 308.456 342.142 308.305 341.705C308.156 341.267 308.134 340.736 308.238 340.111C308.34 339.496 308.535 338.961 308.824 338.505C309.116 338.047 309.475 337.693 309.902 337.443C310.329 337.19 310.796 337.064 311.301 337.064C311.691 337.064 311.991 337.129 312.199 337.259C312.41 337.387 312.564 337.533 312.66 337.697C312.757 337.858 312.829 337.991 312.879 338.095H312.973L313.129 337.142H314.02L313.004 343.314C312.918 343.83 312.732 344.249 312.445 344.572C312.159 344.897 311.807 345.136 311.391 345.287C310.974 345.44 310.527 345.517 310.051 345.517ZM310.535 342.22C310.902 342.22 311.229 342.136 311.516 341.966C311.805 341.797 312.044 341.554 312.234 341.236C312.424 340.918 312.556 340.538 312.629 340.095C312.702 339.663 312.697 339.282 312.613 338.951C312.53 338.62 312.372 338.361 312.141 338.173C311.911 337.986 311.611 337.892 311.238 337.892C310.845 337.892 310.505 337.991 310.219 338.189C309.935 338.387 309.704 338.653 309.527 338.986C309.35 339.319 309.228 339.689 309.16 340.095C309.092 340.512 309.095 340.88 309.168 341.201C309.241 341.519 309.389 341.769 309.613 341.951C309.84 342.13 310.147 342.22 310.535 342.22Z" fill="black"/>
<path d="M147.199 333.585L143.043 343.164H142.199L146.355 333.585H147.199ZM151.026 333.96L149.698 341.96H148.729L149.886 334.976H149.839L147.667 336.273L147.839 335.289L150.058 333.96H151.026ZM154.483 342.07C154.025 342.07 153.627 341.979 153.288 341.796C152.95 341.614 152.696 341.364 152.526 341.046C152.357 340.729 152.296 340.367 152.343 339.96H153.28C153.257 340.32 153.373 340.618 153.628 340.855C153.886 341.092 154.218 341.21 154.624 341.21C154.952 341.21 155.257 341.134 155.538 340.98C155.822 340.826 156.059 340.615 156.249 340.347C156.442 340.079 156.567 339.773 156.624 339.429C156.681 339.08 156.657 338.768 156.55 338.492C156.443 338.216 156.27 337.998 156.03 337.839C155.791 337.68 155.499 337.601 155.155 337.601C154.913 337.601 154.657 337.64 154.386 337.718C154.118 337.794 153.89 337.89 153.702 338.007L152.812 337.898L153.952 333.96H158.108L157.968 334.82H154.624L153.952 337.179H153.999C154.187 337.046 154.409 336.938 154.667 336.855C154.927 336.769 155.194 336.726 155.468 336.726C155.957 336.726 156.374 336.843 156.718 337.078C157.064 337.309 157.313 337.628 157.464 338.035C157.618 338.438 157.65 338.898 157.562 339.414C157.478 339.924 157.289 340.38 156.995 340.781C156.703 341.179 156.339 341.494 155.901 341.726C155.466 341.955 154.994 342.07 154.483 342.07ZM158.707 341.96L159.707 335.96H160.598L160.441 336.898H160.52C160.699 336.578 160.943 336.329 161.25 336.152C161.56 335.972 161.91 335.882 162.301 335.882C162.691 335.882 163.005 335.972 163.242 336.152C163.479 336.329 163.645 336.578 163.738 336.898H163.801C164.004 336.585 164.275 336.338 164.613 336.156C164.954 335.973 165.34 335.882 165.77 335.882C166.301 335.882 166.71 336.05 166.996 336.386C167.285 336.722 167.371 337.242 167.254 337.945L166.582 341.96H165.66L166.332 337.945C166.402 337.499 166.332 337.183 166.121 336.996C165.913 336.805 165.645 336.71 165.316 336.71C164.895 336.71 164.547 336.837 164.273 337.089C164 337.342 163.832 337.664 163.77 338.054L163.113 341.96H162.176L162.863 337.851C162.918 337.507 162.853 337.231 162.668 337.023C162.483 336.815 162.215 336.71 161.863 336.71C161.624 336.71 161.389 336.775 161.16 336.906C160.931 337.033 160.734 337.21 160.57 337.437C160.406 337.661 160.301 337.919 160.254 338.21L159.629 341.96H158.707ZM168.393 341.96L169.721 333.96H170.643L170.158 336.914H170.236C170.32 336.809 170.436 336.677 170.584 336.515C170.732 336.351 170.932 336.205 171.182 336.078C171.432 335.947 171.752 335.882 172.143 335.882C172.648 335.882 173.071 336.009 173.412 336.261C173.756 336.514 173.997 336.872 174.135 337.335C174.275 337.799 174.294 338.346 174.189 338.976C174.085 339.611 173.886 340.162 173.592 340.628C173.3 341.092 172.941 341.451 172.514 341.706C172.089 341.959 171.627 342.085 171.127 342.085C170.742 342.085 170.443 342.022 170.232 341.894C170.024 341.764 169.87 341.617 169.771 341.453C169.675 341.286 169.601 341.148 169.549 341.039H169.439L169.283 341.96H168.393ZM169.799 338.96C169.726 339.414 169.727 339.813 169.803 340.16C169.878 340.503 170.028 340.773 170.252 340.968C170.476 341.161 170.773 341.257 171.143 341.257C171.528 341.257 171.867 341.156 172.158 340.953C172.45 340.747 172.689 340.471 172.877 340.124C173.064 339.775 173.195 339.387 173.268 338.96C173.335 338.539 173.333 338.158 173.26 337.82C173.189 337.479 173.041 337.209 172.814 337.011C172.59 336.811 172.283 336.71 171.893 336.71C171.518 336.71 171.186 336.805 170.896 336.996C170.61 337.183 170.373 337.446 170.186 337.785C170.001 338.121 169.872 338.512 169.799 338.96Z" fill="black"/>
<path d="M111.359 341.96L116.109 334.882L116.125 334.82H112L112.141 333.96H117.266L117.109 334.867L112.375 341.96H111.359ZM116.815 342.023C116.618 342.023 116.452 341.955 116.319 341.82C116.187 341.682 116.118 341.515 116.112 341.32C116.11 341.124 116.179 340.962 116.319 340.831C116.46 340.699 116.625 340.632 116.815 340.632C117.008 340.632 117.175 340.7 117.315 340.835C117.456 340.971 117.524 341.132 117.519 341.32C117.516 341.45 117.482 341.568 117.417 341.675C117.354 341.782 117.27 341.867 117.163 341.929C117.059 341.992 116.943 342.023 116.815 342.023ZM121.41 342.07C120.863 342.07 120.396 341.97 120.008 341.769C119.622 341.566 119.34 341.291 119.16 340.945C118.983 340.598 118.931 340.208 119.004 339.773C119.059 339.445 119.176 339.141 119.355 338.863C119.535 338.584 119.754 338.351 120.012 338.164C120.272 337.976 120.551 337.856 120.848 337.804V337.773C120.48 337.671 120.216 337.446 120.055 337.097C119.896 336.746 119.858 336.351 119.941 335.914C120.02 335.51 120.185 335.153 120.438 334.843C120.69 334.533 121.007 334.291 121.387 334.117C121.767 333.94 122.186 333.851 122.645 333.851C123.118 333.851 123.527 333.947 123.871 334.14C124.215 334.33 124.467 334.591 124.629 334.921C124.793 335.249 124.84 335.622 124.77 336.039C124.694 336.484 124.508 336.861 124.211 337.171C123.914 337.479 123.574 337.679 123.191 337.773V337.804C123.473 337.861 123.716 337.99 123.922 338.191C124.13 338.391 124.281 338.64 124.375 338.937C124.469 339.231 124.486 339.552 124.426 339.898C124.355 340.322 124.18 340.699 123.898 341.027C123.617 341.352 123.262 341.608 122.832 341.792C122.405 341.977 121.931 342.07 121.41 342.07ZM121.441 341.21C121.819 341.21 122.154 341.149 122.445 341.027C122.737 340.902 122.974 340.729 123.156 340.507C123.341 340.283 123.457 340.023 123.504 339.726C123.551 339.429 123.518 339.17 123.406 338.949C123.294 338.725 123.12 338.552 122.883 338.429C122.646 338.304 122.363 338.242 122.035 338.242C121.686 338.242 121.363 338.311 121.066 338.449C120.77 338.587 120.522 338.777 120.324 339.019C120.129 339.261 120.007 339.539 119.957 339.851C119.913 340.13 119.943 340.372 120.047 340.578C120.151 340.781 120.322 340.937 120.559 341.046C120.796 341.156 121.09 341.21 121.441 341.21ZM122.066 337.414C122.371 337.414 122.648 337.352 122.898 337.23C123.151 337.108 123.359 336.938 123.523 336.722C123.69 336.506 123.798 336.257 123.848 335.976C123.897 335.705 123.878 335.475 123.789 335.285C123.703 335.092 123.561 334.946 123.363 334.847C123.165 334.746 122.921 334.695 122.629 334.695C122.314 334.695 122.03 334.753 121.777 334.871C121.527 334.988 121.322 335.152 121.16 335.363C120.999 335.574 120.895 335.82 120.848 336.101C120.803 336.374 120.827 336.61 120.918 336.808C121.009 337.003 121.154 337.153 121.352 337.257C121.552 337.361 121.79 337.414 122.066 337.414ZM125.595 341.96L126.595 335.96H127.485L127.329 336.898H127.407C127.587 336.578 127.83 336.329 128.138 336.152C128.448 335.972 128.798 335.882 129.188 335.882C129.579 335.882 129.893 335.972 130.13 336.152C130.367 336.329 130.532 336.578 130.626 336.898H130.688C130.892 336.585 131.162 336.338 131.501 336.156C131.842 335.973 132.228 335.882 132.657 335.882C133.188 335.882 133.597 336.05 133.884 336.386C134.173 336.722 134.259 337.242 134.142 337.945L133.47 341.96H132.548L133.22 337.945C133.29 337.499 133.22 337.183 133.009 336.996C132.8 336.805 132.532 336.71 132.204 336.71C131.782 336.71 131.435 336.837 131.161 337.089C130.888 337.342 130.72 337.664 130.657 338.054L130.001 341.96H129.063L129.751 337.851C129.806 337.507 129.741 337.231 129.556 337.023C129.371 336.815 129.103 336.71 128.751 336.71C128.511 336.71 128.277 336.775 128.048 336.906C127.819 337.033 127.622 337.21 127.458 337.437C127.294 337.661 127.188 337.919 127.142 338.21L126.517 341.96H125.595ZM135.28 341.96L136.608 333.96H137.53L137.046 336.914H137.124C137.207 336.809 137.323 336.677 137.472 336.515C137.62 336.351 137.819 336.205 138.069 336.078C138.319 335.947 138.64 335.882 139.03 335.882C139.535 335.882 139.959 336.009 140.3 336.261C140.644 336.514 140.884 336.872 141.022 337.335C141.163 337.799 141.181 338.346 141.077 338.976C140.973 339.611 140.774 340.162 140.479 340.628C140.188 341.092 139.828 341.451 139.401 341.706C138.977 341.959 138.515 342.085 138.015 342.085C137.629 342.085 137.331 342.022 137.12 341.894C136.912 341.764 136.758 341.617 136.659 341.453C136.563 341.286 136.489 341.148 136.437 341.039H136.327L136.171 341.96H135.28ZM136.687 338.96C136.614 339.414 136.615 339.813 136.69 340.16C136.766 340.503 136.916 340.773 137.14 340.968C137.364 341.161 137.66 341.257 138.03 341.257C138.416 341.257 138.754 341.156 139.046 340.953C139.338 340.747 139.577 340.471 139.765 340.124C139.952 339.775 140.082 339.387 140.155 338.96C140.223 338.539 140.22 338.158 140.147 337.82C140.077 337.479 139.929 337.209 139.702 337.011C139.478 336.811 139.171 336.71 138.78 336.71C138.405 336.71 138.073 336.805 137.784 336.996C137.498 337.183 137.261 337.446 137.073 337.785C136.888 338.121 136.759 338.512 136.687 338.96Z" fill="#4D47E5"/>
<rect x="110.789" y="314.142" width="199.104" height="7.84848" rx="3.92424" fill="url(#paint4_linear_58_5)" fill-opacity="0.2"/>
<path d="M112.34 293.266L112.519 292.172H120.156L119.977 293.266H116.775L115.263 302.354H114.031L115.542 293.266H112.34ZM121.397 302.533C120.913 302.533 120.489 302.442 120.124 302.26C119.76 302.074 119.49 301.807 119.314 301.459C119.138 301.108 119.09 300.684 119.17 300.187C119.246 299.749 119.394 299.395 119.612 299.123C119.831 298.848 120.096 298.632 120.408 298.476C120.723 298.317 121.061 298.2 121.422 298.123C121.787 298.044 122.15 297.983 122.511 297.94C122.981 297.88 123.364 297.833 123.659 297.8C123.954 297.767 124.176 297.713 124.325 297.636C124.475 297.56 124.566 297.429 124.599 297.244V297.204C124.678 296.717 124.614 296.337 124.405 296.065C124.196 295.79 123.823 295.653 123.286 295.653C122.73 295.653 122.264 295.775 121.889 296.021C121.515 296.266 121.238 296.528 121.059 296.806L120.025 296.408C120.297 295.944 120.622 295.583 120.999 295.324C121.377 295.063 121.773 294.88 122.188 294.778C122.602 294.672 123.001 294.619 123.386 294.619C123.631 294.619 123.908 294.648 124.216 294.708C124.524 294.764 124.813 294.882 125.081 295.061C125.353 295.24 125.557 295.51 125.693 295.871C125.832 296.233 125.852 296.717 125.752 297.323L124.917 302.354H123.744L123.923 301.32H123.863C123.757 301.486 123.595 301.663 123.376 301.852C123.16 302.041 122.887 302.202 122.556 302.334C122.227 302.467 121.841 302.533 121.397 302.533ZM121.735 301.479C122.199 301.479 122.605 301.388 122.953 301.206C123.305 301.024 123.586 300.788 123.798 300.5C124.014 300.212 124.148 299.908 124.201 299.59L124.38 298.516C124.32 298.576 124.203 298.631 124.027 298.68C123.852 298.727 123.653 298.768 123.431 298.805C123.212 298.838 122.998 298.868 122.789 298.894C122.584 298.917 122.418 298.937 122.292 298.954C121.981 298.994 121.684 299.058 121.402 299.148C121.124 299.234 120.888 299.365 120.696 299.54C120.507 299.713 120.39 299.948 120.343 300.246C120.274 300.654 120.371 300.962 120.637 301.171C120.902 301.377 121.268 301.479 121.735 301.479ZM127.059 302.354L128.331 294.718H129.505L128.232 302.354H127.059ZM129.276 293.425C129.047 293.425 128.85 293.347 128.684 293.192C128.522 293.036 128.441 292.849 128.441 292.63C128.441 292.411 128.522 292.224 128.684 292.068C128.85 291.912 129.047 291.834 129.276 291.834C129.505 291.834 129.7 291.912 129.863 292.068C130.028 292.224 130.111 292.411 130.111 292.63C130.111 292.849 130.028 293.036 129.863 293.192C129.7 293.347 129.505 293.425 129.276 293.425ZM133.244 292.172L131.554 302.354H130.381L132.071 292.172H133.244ZM136.855 302.513C136.152 302.513 135.564 302.346 135.09 302.011C134.616 301.677 134.281 301.208 134.086 300.604C133.894 300.001 133.862 299.298 133.991 298.496C134.117 297.714 134.368 297.033 134.742 296.453C135.12 295.87 135.589 295.419 136.149 295.101C136.713 294.779 137.332 294.619 138.009 294.619C138.711 294.619 139.298 294.788 139.768 295.126C140.242 295.46 140.577 295.931 140.773 296.538C140.968 297.141 141.001 297.847 140.872 298.655C140.746 299.431 140.493 300.109 140.112 300.689C139.734 301.266 139.265 301.715 138.705 302.036C138.148 302.354 137.531 302.513 136.855 302.513ZM136.875 301.459C137.412 301.459 137.878 301.322 138.272 301.047C138.67 300.772 138.991 300.409 139.237 299.958C139.485 299.507 139.652 299.02 139.739 298.496C139.818 297.999 139.815 297.537 139.729 297.109C139.643 296.678 139.459 296.332 139.177 296.07C138.895 295.805 138.499 295.672 137.989 295.672C137.452 295.672 136.983 295.812 136.582 296.09C136.184 296.369 135.862 296.735 135.617 297.189C135.372 297.643 135.208 298.132 135.125 298.655C135.045 299.153 135.047 299.615 135.13 300.043C135.216 300.467 135.4 300.81 135.682 301.072C135.967 301.33 136.365 301.459 136.875 301.459ZM142.057 302.354L143.329 294.718H144.463L144.264 295.871H144.344C144.542 295.494 144.846 295.187 145.253 294.952C145.661 294.716 146.094 294.599 146.551 294.599C146.64 294.599 146.748 294.6 146.874 294.604C147 294.604 147.098 294.609 147.167 294.619L146.969 295.812C146.929 295.802 146.839 295.787 146.7 295.767C146.561 295.744 146.412 295.732 146.253 295.732C145.881 295.732 145.538 295.81 145.224 295.966C144.909 296.118 144.645 296.33 144.433 296.602C144.221 296.871 144.085 297.177 144.025 297.522L143.23 302.354H142.057ZM147.293 302.354L148.566 294.718H149.739L148.466 302.354H147.293ZM149.51 293.425C149.282 293.425 149.084 293.347 148.919 293.192C148.756 293.036 148.675 292.849 148.675 292.63C148.675 292.411 148.756 292.224 148.919 292.068C149.084 291.912 149.282 291.834 149.51 291.834C149.739 291.834 149.935 291.912 150.097 292.068C150.263 292.224 150.346 292.411 150.346 292.63C150.346 292.849 150.263 293.036 150.097 293.192C149.935 293.347 149.739 293.425 149.51 293.425ZM152.544 297.761L151.789 302.354H150.615L151.888 294.718H153.021L152.823 295.911H152.922C153.161 295.523 153.484 295.212 153.892 294.976C154.299 294.738 154.791 294.619 155.368 294.619C155.878 294.619 156.309 294.725 156.661 294.937C157.015 295.146 157.266 295.464 157.411 295.891C157.561 296.315 157.582 296.852 157.476 297.502L156.661 302.354H155.487L156.283 297.582C156.382 296.985 156.304 296.518 156.049 296.18C155.797 295.842 155.398 295.672 154.851 295.672C154.473 295.672 154.124 295.754 153.802 295.916C153.484 296.079 153.214 296.315 152.992 296.627C152.773 296.939 152.624 297.316 152.544 297.761ZM161.41 305.377C160.84 305.377 160.362 305.304 159.978 305.158C159.594 305.016 159.285 304.827 159.053 304.592C158.821 304.36 158.646 304.111 158.526 303.846L159.58 303.19C159.66 303.329 159.763 303.488 159.888 303.667C160.014 303.849 160.205 304.007 160.46 304.139C160.719 304.275 161.082 304.343 161.549 304.343C162.162 304.343 162.699 304.194 163.16 303.896C163.621 303.597 163.906 303.13 164.015 302.494L164.254 300.942H164.154C164.048 301.082 163.901 301.254 163.712 301.459C163.523 301.662 163.269 301.842 162.951 302.001C162.633 302.157 162.225 302.235 161.728 302.235C161.108 302.235 160.578 302.089 160.137 301.797C159.696 301.506 159.38 301.082 159.188 300.525C158.999 299.968 158.97 299.292 159.103 298.496C159.232 297.714 159.481 297.033 159.849 296.453C160.22 295.87 160.677 295.419 161.221 295.101C161.764 294.779 162.358 294.619 163.001 294.619C163.498 294.619 163.879 294.701 164.144 294.867C164.413 295.029 164.608 295.215 164.731 295.424C164.853 295.629 164.946 295.798 165.009 295.931H165.129L165.327 294.718H166.461L165.168 302.573C165.059 303.229 164.822 303.763 164.457 304.174C164.093 304.588 163.645 304.891 163.115 305.084C162.585 305.279 162.016 305.377 161.41 305.377ZM162.026 301.181C162.494 301.181 162.91 301.073 163.274 300.858C163.642 300.642 163.947 300.333 164.189 299.928C164.431 299.524 164.598 299.04 164.691 298.476C164.784 297.926 164.777 297.441 164.671 297.02C164.565 296.599 164.365 296.269 164.07 296.03C163.778 295.792 163.395 295.672 162.921 295.672C162.421 295.672 161.988 295.798 161.624 296.05C161.262 296.302 160.969 296.64 160.744 297.065C160.518 297.489 160.362 297.959 160.276 298.476C160.19 299.007 160.193 299.476 160.286 299.883C160.379 300.288 160.568 300.606 160.853 300.838C161.141 301.067 161.532 301.181 162.026 301.181ZM172.248 292.172H173.66L175.708 296.925H175.827L179.427 292.172H180.839L176.165 298.158L175.469 302.354H174.237L174.933 298.158L172.248 292.172ZM182.656 302.513C181.953 302.513 181.365 302.346 180.891 302.011C180.417 301.677 180.082 301.208 179.887 300.604C179.694 300.001 179.663 299.298 179.792 298.496C179.918 297.714 180.168 297.033 180.543 296.453C180.921 295.87 181.39 295.419 181.95 295.101C182.513 294.779 183.133 294.619 183.809 294.619C184.512 294.619 185.099 294.788 185.569 295.126C186.043 295.46 186.378 295.931 186.574 296.538C186.769 297.141 186.802 297.847 186.673 298.655C186.547 299.431 186.293 300.109 185.912 300.689C185.534 301.266 185.065 301.715 184.505 302.036C183.949 302.354 183.332 302.513 182.656 302.513ZM182.676 301.459C183.213 301.459 183.678 301.322 184.073 301.047C184.471 300.772 184.792 300.409 185.037 299.958C185.286 299.507 185.453 299.02 185.539 298.496C185.619 297.999 185.616 297.537 185.529 297.109C185.443 296.678 185.259 296.332 184.978 296.07C184.696 295.805 184.3 295.672 183.789 295.672C183.252 295.672 182.783 295.812 182.382 296.09C181.985 296.369 181.663 296.735 181.418 297.189C181.173 297.643 181.009 298.132 180.926 298.655C180.846 299.153 180.848 299.615 180.931 300.043C181.017 300.467 181.201 300.81 181.483 301.072C181.768 301.33 182.165 301.459 182.676 301.459ZM193.187 299.232L193.943 294.718H195.116L193.843 302.354H192.67L192.889 301.062H192.809C192.57 301.449 192.237 301.779 191.81 302.051C191.382 302.32 190.88 302.454 190.303 302.454C189.826 302.454 189.419 302.349 189.08 302.141C188.746 301.928 188.507 301.61 188.365 301.186C188.225 300.758 188.209 300.22 188.315 299.57L189.13 294.718H190.303L189.508 299.491C189.419 300.047 189.503 300.492 189.762 300.823C190.02 301.154 190.393 301.32 190.88 301.32C191.172 301.32 191.48 301.246 191.805 301.096C192.133 300.947 192.425 300.719 192.68 300.41C192.938 300.102 193.107 299.709 193.187 299.232ZM195.992 302.354L197.265 294.718H198.398L198.2 295.871H198.279C198.478 295.494 198.781 295.187 199.189 294.952C199.597 294.716 200.029 294.599 200.487 294.599C200.576 294.599 200.684 294.6 200.81 294.604C200.936 294.604 201.033 294.609 201.103 294.619L200.904 295.812C200.864 295.802 200.775 295.787 200.636 295.767C200.496 295.744 200.347 295.732 200.188 295.732C199.817 295.732 199.474 295.81 199.159 295.966C198.844 296.118 198.581 296.33 198.369 296.602C198.156 296.871 198.021 297.177 197.961 297.522L197.165 302.354H195.992ZM205.325 302.354L207.015 292.172H210.456C211.251 292.172 211.881 292.307 212.345 292.575C212.812 292.844 213.129 293.213 213.295 293.684C213.464 294.154 213.498 294.691 213.399 295.295C213.3 295.891 213.087 296.422 212.763 296.886C212.441 297.35 212.004 297.714 211.45 297.979C210.9 298.244 210.23 298.377 209.442 298.377H206.657L206.856 297.263H209.601C210.144 297.263 210.595 297.184 210.953 297.025C211.311 296.866 211.589 296.639 211.788 296.344C211.987 296.049 212.12 295.699 212.186 295.295C212.252 294.884 212.234 294.527 212.131 294.226C212.032 293.921 211.828 293.686 211.52 293.52C211.215 293.351 210.787 293.266 210.237 293.266H208.069L206.558 302.354H205.325ZM210.873 297.78L212.623 302.354H211.192L209.481 297.78H210.873ZM217.221 302.513C216.488 302.513 215.884 302.351 215.406 302.026C214.929 301.698 214.596 301.241 214.407 300.654C214.218 300.064 214.188 299.378 214.317 298.596C214.447 297.814 214.704 297.124 215.088 296.528C215.473 295.928 215.951 295.46 216.525 295.126C217.098 294.788 217.728 294.619 218.414 294.619C218.812 294.619 219.195 294.685 219.562 294.817C219.93 294.95 220.249 295.165 220.517 295.464C220.786 295.759 220.973 296.15 221.079 296.637C221.185 297.124 221.178 297.724 221.059 298.437L220.979 298.934H215.093L215.252 297.92H219.945C220.022 297.489 220.002 297.104 219.886 296.766C219.773 296.428 219.576 296.161 219.294 295.966C219.016 295.77 218.663 295.672 218.235 295.672C217.794 295.672 217.383 295.792 217.002 296.03C216.621 296.266 216.303 296.564 216.048 296.925C215.792 297.283 215.633 297.648 215.57 298.019L215.431 298.894C215.332 299.527 215.347 300.031 215.476 300.405C215.608 300.78 215.839 301.05 216.167 301.216C216.495 301.378 216.906 301.459 217.4 301.459C217.715 301.459 218.005 301.416 218.27 301.33C218.535 301.241 218.772 301.108 218.981 300.932C219.19 300.753 219.365 300.531 219.508 300.266L220.582 300.584C220.399 300.969 220.143 301.307 219.811 301.599C219.483 301.887 219.098 302.112 218.658 302.275C218.22 302.434 217.741 302.513 217.221 302.513ZM228.618 296.428L227.505 296.726C227.465 296.547 227.395 296.375 227.296 296.209C227.2 296.04 227.051 295.903 226.848 295.797C226.65 295.687 226.378 295.633 226.033 295.633C225.566 295.633 225.16 295.74 224.815 295.956C224.47 296.168 224.273 296.438 224.223 296.766C224.174 297.055 224.24 297.285 224.422 297.457C224.605 297.63 224.909 297.771 225.337 297.88L226.431 298.158C227.087 298.327 227.554 298.581 227.833 298.919C228.114 299.254 228.211 299.69 228.121 300.226C228.048 300.664 227.858 301.055 227.549 301.4C227.241 301.744 226.847 302.016 226.366 302.215C225.886 302.414 225.35 302.513 224.76 302.513C223.975 302.513 223.355 302.344 222.901 302.006C222.447 301.665 222.205 301.171 222.175 300.525L223.348 300.246C223.378 300.654 223.524 300.962 223.786 301.171C224.051 301.377 224.422 301.479 224.9 301.479C225.446 301.479 225.902 301.363 226.267 301.131C226.631 300.896 226.838 300.614 226.888 300.286C226.938 300.018 226.885 299.794 226.729 299.615C226.577 299.436 226.311 299.302 225.934 299.212L224.721 298.914C224.044 298.745 223.57 298.486 223.299 298.138C223.03 297.79 222.941 297.353 223.03 296.826C223.103 296.395 223.289 296.014 223.587 295.682C223.889 295.351 224.266 295.091 224.721 294.902C225.178 294.713 225.675 294.619 226.212 294.619C226.968 294.619 227.533 294.784 227.907 295.116C228.282 295.444 228.519 295.881 228.618 296.428ZM234.859 299.232L235.615 294.718H236.788L235.515 302.354H234.342L234.561 301.062H234.481C234.242 301.449 233.909 301.779 233.482 302.051C233.054 302.32 232.552 302.454 231.975 302.454C231.498 302.454 231.09 302.349 230.752 302.141C230.418 301.928 230.179 301.61 230.036 301.186C229.897 300.758 229.881 300.22 229.987 299.57L230.802 294.718H231.975L231.18 299.491C231.09 300.047 231.175 300.492 231.433 300.823C231.692 301.154 232.065 301.32 232.552 301.32C232.844 301.32 233.152 301.246 233.477 301.096C233.805 300.947 234.097 300.719 234.352 300.41C234.61 300.102 234.779 299.709 234.859 299.232ZM237.664 302.354L238.937 294.718H240.07L239.871 295.911H239.971C240.2 295.503 240.509 295.187 240.901 294.962C241.295 294.733 241.741 294.619 242.238 294.619C242.735 294.619 243.134 294.733 243.436 294.962C243.738 295.187 243.948 295.503 244.067 295.911H244.147C244.406 295.513 244.75 295.199 245.181 294.967C245.615 294.735 246.106 294.619 246.653 294.619C247.329 294.619 247.849 294.832 248.214 295.26C248.582 295.687 248.691 296.349 248.542 297.244L247.687 302.354H246.513L247.369 297.244C247.458 296.677 247.369 296.274 247.1 296.035C246.835 295.793 246.494 295.672 246.076 295.672C245.539 295.672 245.097 295.833 244.749 296.155C244.401 296.476 244.187 296.886 244.107 297.383L243.272 302.354H242.079L242.954 297.124C243.023 296.687 242.941 296.335 242.705 296.07C242.47 295.805 242.129 295.672 241.681 295.672C241.376 295.672 241.078 295.755 240.786 295.921C240.495 296.083 240.244 296.309 240.036 296.597C239.827 296.882 239.692 297.21 239.633 297.582L238.837 302.354H237.664ZM253.014 302.513C252.281 302.513 251.676 302.351 251.199 302.026C250.722 301.698 250.389 301.241 250.2 300.654C250.011 300.064 249.981 299.378 250.11 298.596C250.24 297.814 250.497 297.124 250.881 296.528C251.266 295.928 251.744 295.46 252.318 295.126C252.891 294.788 253.521 294.619 254.207 294.619C254.605 294.619 254.988 294.685 255.355 294.817C255.723 294.95 256.042 295.165 256.31 295.464C256.578 295.759 256.766 296.15 256.872 296.637C256.978 297.124 256.971 297.724 256.852 298.437L256.772 298.934H250.886L251.045 297.92H255.738C255.815 297.489 255.795 297.104 255.679 296.766C255.566 296.428 255.369 296.161 255.087 295.966C254.809 295.77 254.456 295.672 254.028 295.672C253.587 295.672 253.176 295.792 252.795 296.03C252.414 296.266 252.096 296.564 251.841 296.925C251.585 297.283 251.426 297.648 251.363 298.019L251.224 298.894C251.125 299.527 251.14 300.031 251.269 300.405C251.401 300.78 251.632 301.05 251.96 301.216C252.288 301.378 252.699 301.459 253.193 301.459C253.508 301.459 253.798 301.416 254.063 301.33C254.328 301.241 254.565 301.108 254.774 300.932C254.983 300.753 255.158 300.531 255.301 300.266L256.375 300.584C256.192 300.969 255.935 301.307 255.604 301.599C255.276 301.887 254.891 302.112 254.451 302.275C254.013 302.434 253.534 302.513 253.014 302.513Z" fill="black"/>
<rect x="101.5" y="279.642" width="223.605" height="73" rx="7.5" stroke="#2D90DC"/>
<line y1="-1.5" x2="70" y2="-1.5" transform="matrix(0 -1 1 -4.74596e-05 209 277)" stroke="#2D90DC" stroke-width="3" stroke-dasharray="10 5"/>
<line y1="-1.5" x2="80.8578" y2="-1.5" transform="matrix(0 -1 1 -4.74596e-05 209 436.858)" stroke="#2D90DC" stroke-width="3" stroke-dasharray="10 5"/>
<defs>
<filter id="filter0_i_58_5" x="122.5" y="37.8616" width="19.3799" height="20.7385" filterUnits="userSpaceOnUse" color-interpolation-filters="sRGB">
<feFlood flood-opacity="0" result="BackgroundImageFix"/>
<feBlend mode="normal" in="SourceGraphic" in2="BackgroundImageFix" result="shape"/>
<feColorMatrix in="SourceAlpha" type="matrix" values="0 0 0 0 0 0 0 0 0 0 0 0 0 0 0 0 0 0 127 0" result="hardAlpha"/>
<feOffset dy="4"/>
<feGaussianBlur stdDeviation="2"/>
<feComposite in2="hardAlpha" operator="arithmetic" k2="-1" k3="1"/>
<feColorMatrix type="matrix" values="0 0 0 0 0 0 0 0 0 0 0 0 0 0 0 0 0 0 0.25 0"/>
<feBlend mode="normal" in2="shape" result="effect1_innerShadow_58_5"/>
</filter>
<filter id="filter1_d_58_5" x="0" y="0" width="437" height="209" filterUnits="userSpaceOnUse" color-interpolation-filters="sRGB">
<feFlood flood-opacity="0" result="BackgroundImageFix"/>
<feColorMatrix in="SourceAlpha" type="matrix" values="0 0 0 0 0 0 0 0 0 0 0 0 0 0 0 0 0 0 127 0" result="hardAlpha"/>
<feOffset dy="4"/>
<feGaussianBlur stdDeviation="2"/>
<feComposite in2="hardAlpha" operator="out"/>
<feColorMatrix type="matrix" values="0 0 0 0 0 0 0 0 0 0 0 0 0 0 0 0 0 0 0.25 0"/>
<feBlend mode="normal" in2="BackgroundImageFix" result="effect1_dropShadow_58_5"/>
<feBlend mode="normal" in="SourceGraphic" in2="effect1_dropShadow_58_5" result="shape"/>
</filter>
<filter id="filter2_i_58_5" x="221.925" y="475.862" width="18.6318" height="20.7385" filterUnits="userSpaceOnUse" color-interpolation-filters="sRGB">
<feFlood flood-opacity="0" result="BackgroundImageFix"/>
<feBlend mode="normal" in="SourceGraphic" in2="BackgroundImageFix" result="shape"/>
<feColorMatrix in="SourceAlpha" type="matrix" values="0 0 0 0 0 0 0 0 0 0 0 0 0 0 0 0 0 0 127 0" result="hardAlpha"/>
<feOffset dy="4"/>
<feGaussianBlur stdDeviation="2"/>
<feComposite in2="hardAlpha" operator="arithmetic" k2="-1" k3="1"/>
<feColorMatrix type="matrix" values="0 0 0 0 0 0 0 0 0 0 0 0 0 0 0 0 0 0 0.25 0"/>
<feBlend mode="normal" in2="shape" result="effect1_innerShadow_58_5"/>
</filter>
<filter id="filter3_d_58_5" x="100" y="442" width="238" height="209" filterUnits="userSpaceOnUse" color-interpolation-filters="sRGB">
<feFlood flood-opacity="0" result="BackgroundImageFix"/>
<feColorMatrix in="SourceAlpha" type="matrix" values="0 0 0 0 0 0 0 0 0 0 0 0 0 0 0 0 0 0 127 0" result="hardAlpha"/>
<feOffset dy="4"/>
<feGaussianBlur stdDeviation="2"/>
<feComposite in2="hardAlpha" operator="out"/>
<feColorMatrix type="matrix" values="0 0 0 0 0 0 0 0 0 0 0 0 0 0 0 0 0 0 0.25 0"/>
<feBlend mode="normal" in2="BackgroundImageFix" result="effect1_dropShadow_58_5"/>
<feBlend mode="normal" in="SourceGraphic" in2="effect1_dropShadow_58_5" result="shape"/>
</filter>
<linearGradient id="paint0_linear_58_5" x1="217.5" y1="15" x2="217.5" y2="187" gradientUnits="userSpaceOnUse">
<stop stop-color="#1793B9"/>
<stop offset="1" stop-color="#80C3C4" stop-opacity="0.33"/>
</linearGradient>
<linearGradient id="paint1_linear_58_5" x1="40.6973" y1="38.0291" x2="155.419" y2="138.161" gradientUnits="userSpaceOnUse">
<stop stop-color="#42CACD"/>
<stop offset="1" stop-color="#277EE0"/>
</linearGradient>
<linearGradient id="paint2_linear_58_5" x1="218.5" y1="457" x2="218.5" y2="629" gradientUnits="userSpaceOnUse">
<stop stop-color="#1793B9"/>
<stop offset="1" stop-color="#80C3C4" stop-opacity="0.33"/>
</linearGradient>
<linearGradient id="paint3_linear_58_5" x1="143.281" y1="476.029" x2="257.307" y2="571.712" gradientUnits="userSpaceOnUse">
<stop stop-color="#42CACD"/>
<stop offset="1" stop-color="#277EE0"/>
</linearGradient>
<linearGradient id="paint4_linear_58_5" x1="110.789" y1="318.066" x2="309.893" y2="318.066" gradientUnits="userSpaceOnUse">
<stop stop-color="#0A325E"/>
<stop offset="0.205946" stop-color="#0257AF"/>
<stop offset="0.390912" stop-color="#1F65A4"/>
<stop offset="0.500521" stop-color="#3892BB"/>
<stop offset="0.727698" stop-color="#26B9E9"/>
<stop offset="0.893973" stop-color="#74D6EC"/>
<stop offset="1" stop-color="#7CECF0"/>
</linearGradient>
</defs>
</svg>
